<?xml version="1.0" encoding="UTF-8"?>
<svg version="1.1" xmlns="http://www.w3.org/2000/svg" width="1024" height="1024">
<path d="M0 0 C337.92 0 675.84 0 1024 0 C1024 337.92 1024 675.84 1024 1024 C686.08 1024 348.16 1024 0 1024 C0 686.08 0 348.16 0 0 Z " fill="#2E253A" transform="translate(0,0)"/>
<path d="M0 0 C53.02942805 -0.09157685 106.05884811 -0.16204958 159.0883397 -0.20426132 C165.35047855 -0.20926408 171.61261724 -0.21444138 177.87475586 -0.21972656 C179.1214228 -0.2207758 180.36808974 -0.22182505 181.65253446 -0.22290608 C201.83227194 -0.24030622 222.01196378 -0.27184179 242.1916742 -0.30861118 C262.90147139 -0.34603144 283.6112447 -0.36823816 304.32107431 -0.37635398 C317.09776584 -0.38183948 329.87432839 -0.39915842 342.65098021 -0.43166587 C351.41515271 -0.4528271 360.17925864 -0.45919638 368.94345482 -0.45400551 C373.99819388 -0.45144627 379.05270771 -0.45533996 384.10740662 -0.4768219 C388.7410483 -0.49637001 393.37431452 -0.49721664 398.00797395 -0.48359558 C399.6784575 -0.48191355 401.34896504 -0.4869175 403.01940181 -0.49953273 C415.17541744 -0.58594868 427.57462313 0.11207658 437.29296875 8.31640625 C446.10434543 17.00680292 449.42799968 26.82584126 449.53031152 39.10576957 C449.51590402 40.99479463 449.51590402 40.99479463 449.50120544 42.92198181 C449.50510581 44.30061225 449.51075212 45.67923864 449.51797634 47.05785567 C449.53264379 50.81810656 449.52260219 54.57793497 449.50823963 58.33817184 C449.49708363 62.40438763 449.50908772 66.47054639 449.51808167 70.53675842 C449.53198513 78.49164084 449.5244792 86.44636407 449.50940608 94.40123885 C449.49250792 103.67386922 449.49576109 112.94646036 449.49950016 122.21910138 C449.50537354 138.7697162 449.49122817 155.32025486 449.46655273 171.87084961 C449.44263741 187.91352189 449.43554765 203.95609239 449.44604492 219.9987793 C449.45746717 237.48630363 449.45936775 254.97378094 449.44494683 272.46130472 C449.44342106 274.32787199 449.4419007 276.19443927 449.44038582 278.06100655 C449.439628 278.97928597 449.43887019 279.89756538 449.43808941 280.84367145 C449.43335638 287.29979442 449.43519108 293.75589633 449.43945122 300.21201897 C449.44438982 308.08583159 449.43834054 315.9595482 449.41855692 323.83333891 C449.40871907 327.84700116 449.40354164 331.86051755 449.41144943 335.87418747 C449.41855272 339.55497819 449.41159425 343.2354758 449.3938458 346.91622812 C449.38794284 348.86430962 449.39657897 350.81241885 449.40589231 352.76048702 C449.31392016 365.62537824 446.97316452 377.17048194 438.21875 387 C428.76327969 395.99044718 417.81918969 398.15907718 405.20167542 398.13130188 C404.33970942 398.13341759 403.47774342 398.13553331 402.58965725 398.13771313 C399.71413681 398.14368344 396.83866063 398.14271512 393.96313477 398.1418457 C391.89629034 398.1448791 389.82944659 398.14840106 387.76260376 398.15237427 C383.31775908 398.16024862 378.87292238 398.16540261 374.42807198 398.16866493 C367.39765605 398.17458551 360.36729046 398.19113493 353.3368988 398.21000671 C350.92817405 398.21634359 348.51944926 398.22266922 346.11072445 398.22898388 C344.90467269 398.23214969 343.69862093 398.2353155 342.45602214 398.23857725 C326.09333021 398.28063099 309.73066234 398.31364053 293.36791992 398.32592773 C282.323207 398.33430658 271.27861938 398.3567877 260.23396915 398.3952834 C254.39200329 398.41504359 248.55022476 398.42744853 242.70822334 398.42244911 C237.21451066 398.41780461 231.7211534 398.43159765 226.22751236 398.45946121 C224.21356943 398.46637522 222.19958976 398.46649732 220.18564796 398.45926094 C217.43177954 398.45036642 214.67908178 398.46607584 211.92530823 398.48774719 C211.13239571 398.47930466 210.33948319 398.47086212 209.52254301 398.46216375 C202.54500449 398.56338548 196.46952382 400.98474426 191.52148438 406.02441406 C190.96150757 406.58469299 190.40153076 407.14497192 189.82458496 407.722229 C189.25340942 408.31404968 188.68223389 408.90587036 188.09375 409.515625 C187.48358032 410.13145447 186.87341064 410.74728394 186.24475098 411.3817749 C184.32013843 413.32857122 182.40999871 415.28887506 180.5 417.25 C179.18843624 418.58165194 177.8759444 419.91239046 176.5625 421.2421875 C173.3641793 424.48433635 170.1787515 427.73866703 167 431 C177.09398283 431.6363367 187.1830766 432.09942591 197.29296875 432.39453125 C240.90022275 433.68407248 284.84286877 435.16195938 328 442 C329.5483252 442.23952393 329.5483252 442.23952393 331.12792969 442.48388672 C362.04178073 447.35590964 362.04178073 447.35590964 372 455 C372.6875 457.5 372.6875 457.5 372 460 C350.49506001 480.27947466 297.04310933 477.75864339 268.6875 479.625 C267.837323 479.68157776 266.987146 479.73815552 266.11120605 479.79644775 C260.36018463 480.17202183 254.60726725 480.49626895 248.85189819 480.79760742 C246.05331585 480.944655 243.2551067 481.09571375 240.4569397 481.25024414 C210.79822621 482.87150812 181.20023234 483.31768235 151.50024414 483.26074219 C145.52626951 483.24938154 139.55247396 483.25611178 133.57850552 483.26763344 C92.04626435 483.33517988 50.39612232 482.64991132 9 479 C8.27826599 478.93661438 7.55653198 478.87322876 6.81292725 478.80792236 C-71.3709207 471.89119356 -71.3709207 471.89119356 -83 461 C-83.7265625 458.33984375 -83.7265625 458.33984375 -84 456 C-76.54961139 448.75097324 -66.52536121 446.54885678 -56.5625 444.5625 C-55.53535889 444.35713623 -54.50821777 444.15177246 -53.44995117 443.94018555 C-36.0325312 440.67759213 -18.29939501 439.05124576 -0.68023682 437.27151489 C1.06783489 437.09443073 2.81561659 436.91445281 4.56304932 436.73117065 C21.28151239 434.98741006 38.03386983 434.23791372 54.82061768 433.53027344 C57.70453793 433.40750875 60.58822756 433.27976336 63.47192383 433.15186119 C82.64400083 432.30242811 101.81841188 431.59757414 121 431 C120.56537445 430.59802399 120.1307489 430.19604797 119.68295288 429.78189087 C117.89254069 428.12570936 116.10249403 426.46913344 114.3125 424.8125 C113.57596191 424.13106934 112.83942383 423.44963867 112.08056641 422.74755859 C108.79570167 419.68531144 105.5670778 416.59575348 102.4609375 413.3515625 C101.90752686 412.77688232 101.35411621 412.20220215 100.78393555 411.61010742 C99.75811563 410.53534182 98.74291622 409.45028181 97.74145508 408.3527832 C91.67393135 402.01527359 85.17320453 398.83069154 76.38568342 398.43988979 C71.82317177 398.34502894 67.26496654 398.3675726 62.7019043 398.40405273 C60.64272751 398.40214689 58.58355178 398.39798727 56.52438354 398.39175415 C52.10401661 398.3829864 47.68404318 398.38967434 43.26370811 398.40841484 C36.2652065 398.437596 29.26704106 398.42968904 22.26850891 398.41651917 C8.67042873 398.39588142 -4.92748763 398.41143487 -18.52555847 398.43199158 C-35.82293514 398.45715206 -53.12021967 398.46992482 -70.41759938 398.44203526 C-77.36537441 398.43211593 -84.31274258 398.44212973 -91.26047289 398.46794307 C-95.59429876 398.48016902 -99.92799946 398.47588515 -104.26182938 398.46736526 C-106.2607966 398.46683306 -108.25977986 398.47309113 -110.25869942 398.48690605 C-124.05864253 398.57759586 -137.05193203 398.43129685 -148.0703125 388.90625 C-156.32892638 380.74794318 -160.41842224 371.27768008 -160.51632524 359.61805707 C-160.50467387 358.61510608 -160.4930225 357.61215509 -160.48101807 356.57881165 C-160.48443577 355.48318804 -160.48785347 354.38756444 -160.49137473 353.25874013 C-160.4979216 349.61663778 -160.47602959 345.9752855 -160.45410156 342.33325195 C-160.4529724 339.71097328 -160.45360829 337.08869334 -160.45587158 334.46641541 C-160.45796116 328.8358171 -160.44549362 323.2054053 -160.42292023 317.5748539 C-160.39030507 309.43422156 -160.37998353 301.29367869 -160.37496826 293.1529881 C-160.36623047 279.94284274 -160.3396562 266.73279661 -160.30175781 253.52270508 C-160.26499837 240.6962127 -160.23670591 227.86974736 -160.21972656 215.04321289 C-160.21867567 214.25156203 -160.21762477 213.45991116 -160.21654204 212.64427087 C-160.21132159 208.67248507 -160.20626683 204.70069907 -160.20129442 200.72891295 C-160.15987962 167.81920308 -160.08947269 134.90961486 -160 102 C-159.25400764 101.99853344 -158.50801527 101.99706688 -157.73941708 101.99555588 C-139.57768889 101.95848482 -121.41615299 101.89946616 -103.25457668 101.81609726 C-94.47171667 101.77630825 -85.68894625 101.74391507 -76.90600586 101.72900391 C-69.2497115 101.71598665 -61.59361426 101.68902019 -53.93743092 101.64538693 C-49.88446751 101.62277366 -45.83174722 101.60708923 -41.77871513 101.60811615 C-37.96103944 101.60886285 -34.14390114 101.59090856 -30.32636452 101.55883217 C-28.92801744 101.55033854 -27.52961006 101.54857964 -26.13124847 101.55419731 C-17.5413204 101.58409976 -11.76863403 101.37302986 -5.2578125 95.40234375 C-1.14576487 90.08504078 -0.84093069 86.10745746 -0.79467773 79.58129883 C-0.78477814 78.72254654 -0.77487854 77.86379425 -0.76467896 76.97901917 C-0.73307234 74.13838465 -0.70830979 71.2977334 -0.68359375 68.45703125 C-0.6630235 66.48833276 -0.64202701 64.51963868 -0.62062073 62.5509491 C-0.56540738 57.36751882 -0.51599482 52.18404873 -0.46777344 47.00054932 C-0.41755306 41.71191868 -0.36186979 36.42334591 -0.30664062 31.13476562 C-0.19906805 20.75655984 -0.09762104 10.37830383 0 0 Z " fill="#FBF2E4" transform="translate(367,237)"/>
<path d="M0 0 C0.81725335 -0.00581376 1.6345067 -0.01162753 2.47652531 -0.01761746 C5.20881507 -0.03218898 7.94020248 -0.0183457 10.67248535 -0.00457001 C12.65359709 -0.00918004 14.63470541 -0.01553365 16.61580658 -0.02347898 C22.05513547 -0.04018121 27.49418373 -0.03192174 32.93351364 -0.01953411 C38.80135757 -0.01048967 44.66915299 -0.02445036 50.5369873 -0.0354538 C62.03025156 -0.05325003 73.5234114 -0.04939408 85.01667976 -0.03780323 C94.35662663 -0.02877355 103.69654722 -0.02743714 113.03649902 -0.0318985 C113.70023456 -0.03220404 114.3639701 -0.03250958 115.04781884 -0.03282438 C117.74217312 -0.03406974 120.43652739 -0.03534334 123.13088164 -0.03666343 C148.40331046 -0.04889801 173.67568232 -0.03780786 198.94810236 -0.01627585 C221.39857824 0.00270643 243.84896338 0.00100791 266.29943848 -0.01811981 C291.52579389 -0.03954076 316.75209897 -0.04803032 341.97846222 -0.03567076 C344.66789244 -0.0343879 347.35732268 -0.03313654 350.04675293 -0.0318985 C350.70895377 -0.03158219 351.37115462 -0.03126588 352.05342215 -0.03093999 C362.05105507 -0.02639109 372.0486386 -0.03173421 382.04626465 -0.04181671 C393.41462426 -0.05302945 404.78287338 -0.05001181 416.15122032 -0.02869374 C421.95269223 -0.01817367 427.75397985 -0.01407797 433.55545044 -0.02729034 C438.86515917 -0.03919998 444.17451259 -0.03267494 449.48418903 -0.01138014 C451.40601405 -0.00690806 453.32786901 -0.00919388 455.2496748 -0.01888329 C457.86129438 -0.03104164 460.47169592 -0.01857804 463.08325195 0 C463.83003488 -0.00936466 464.5768178 -0.01872933 465.34623051 -0.02837777 C471.76735388 0.06296378 476.87393352 2.21339847 481.74865723 6.39789581 C482.27846191 7.0308255 482.8082666 7.66375519 483.35412598 8.31586456 C483.89682129 8.94105988 484.4395166 9.56625519 484.99865723 10.21039581 C489.37306757 16.71110182 489.98541804 22.11384721 489.96154785 29.77802277 C489.9700174 30.78710693 489.97848694 31.7961911 489.98721313 32.83585358 C490.010537 36.15874727 490.01160625 39.48117657 490.01037598 42.80414581 C490.017481 45.12431268 490.02518049 47.44447779 490.03344727 49.76464081 C490.04688203 54.62413162 490.04846559 59.48346 490.04260254 64.34296417 C490.03671167 70.55356625 490.0672784 76.76338521 490.10771942 82.97383595 C490.13363996 87.7652833 490.13646976 92.55654328 490.13282776 97.34805107 C490.13451533 99.63687035 490.14412268 101.92569863 490.16197205 104.21444893 C490.18424402 107.42366442 490.17441653 110.6313101 490.15686035 113.84052277 C490.17675522 115.24283897 490.17675522 115.24283897 490.197052 116.6734848 C490.10187197 124.20647552 487.94338294 130.78025108 482.78621674 136.42460346 C476.73092452 142.0935689 470.40912073 143.95746474 462.23753452 143.8836813 C461.01845038 143.89067118 461.01845038 143.89067118 459.77473828 143.89780226 C457.05197683 143.90975114 454.32971446 143.90035726 451.60694885 143.89104462 C449.63495134 143.89521757 447.66295624 143.90069488 445.69096559 143.90736443 C440.2722259 143.92184265 434.853638 143.91756685 429.43488991 143.91019762 C423.59089162 143.90547416 417.74692655 143.91796848 411.90293884 143.92821503 C400.45434065 143.94542429 389.0057973 143.94623865 377.55718953 143.94100212 C368.25345208 143.93696328 358.94973086 143.93840058 349.64599419 143.94375038 C348.30926241 143.94450725 346.97253063 143.94526323 345.63579885 143.94601833 C343.62147027 143.94716352 341.60714168 143.9483134 339.59281311 143.94947757 C320.865481 143.96018259 302.1381549 143.96490777 283.41082096 143.95700741 C282.35190594 143.95656165 282.35190594 143.95656165 281.2715987 143.95610688 C275.53882697 143.95365794 269.80605531 143.95104636 264.07328366 143.94842275 C241.7102449 143.9383197 219.34728122 143.94667681 196.98425293 143.9699173 C171.85862295 143.99598654 146.73303817 144.00883878 121.60739416 144.00172955 C118.92862062 144.00101348 116.24984708 144.0003391 113.57107353 143.9996891 C112.25301944 143.99936699 110.93496534 143.99904487 109.57697021 143.998713 C100.28368496 143.99741103 90.9904371 144.00576691 81.69716072 144.01798058 C70.37269955 144.03267891 59.04834347 144.03336894 47.72388441 144.01590966 C41.9446934 144.00737797 36.16569031 144.00530312 30.38650894 144.02056122 C25.09712069 144.03435346 19.80808232 144.02971555 14.5187146 144.01032198 C12.60425954 144.00654487 10.68977682 144.00953292 8.77534629 144.01993363 C6.17366137 144.03306405 3.57319106 144.02155588 0.97155857 144.00393581 C-0.14423155 144.01841158 -0.14423155 144.01841158 -1.28256288 144.03317979 C-7.82987016 143.94208848 -12.86056467 141.65356425 -17.88415527 137.49555206 C-18.81808105 136.44754425 -18.81808105 136.44754425 -19.77087402 135.37836456 C-20.72413574 134.35355988 -20.72413574 134.35355988 -21.69665527 133.30805206 C-26.10427309 126.29104631 -26.90422946 118.55550834 -26.86242676 110.43891144 C-26.86929001 109.48791061 -26.87615326 108.53690979 -26.88322449 107.55709076 C-26.90137403 104.44527577 -26.89767244 101.33397059 -26.89196777 98.22211456 C-26.89653473 96.04075712 -26.90184183 93.85940112 -26.90785217 91.67804718 C-26.91675964 87.11894616 -26.91438646 82.56002053 -26.90441895 78.00092316 C-26.89292315 72.17723636 -26.91316269 66.35415537 -26.94233608 60.5305481 C-26.96073601 56.02991687 -26.96039819 51.52942987 -26.95469856 47.02877045 C-26.95454586 44.88230794 -26.96054743 42.73583533 -26.97299004 40.58940887 C-26.98797268 37.58183155 -26.97716997 34.57536185 -26.96008301 31.56781769 C-26.96975098 30.69375778 -26.97941895 29.81969788 -26.98937988 28.91915131 C-26.88605813 20.1746814 -24.00952477 12.78456335 -18.41149902 6.07367706 C-12.70905195 1.48890962 -7.21160364 -0.09043357 0 0 Z " fill="#2A67C4" transform="translate(278.4583740234375,458.4966354370117)"/>
<path d="M0 0 C0.79985829 -0.00382555 1.59971657 -0.00765109 2.42381299 -0.01159257 C5.09520103 -0.0218842 7.7663726 -0.01793773 10.43777466 -0.01396179 C12.35669147 -0.0183104 14.27560654 -0.02349405 16.19451904 -0.02944946 C21.401166 -0.04283503 26.60774034 -0.04341859 31.81440115 -0.04088616 C36.16327852 -0.0398161 40.51214122 -0.04470077 44.86101544 -0.04949158 C55.1222901 -0.06058537 65.38352815 -0.06102497 75.64480591 -0.05497742 C86.22508529 -0.04893765 96.80523169 -0.06124904 107.38548839 -0.08254749 C116.47441514 -0.10017002 125.56329958 -0.10616379 134.65224278 -0.10290974 C140.07837803 -0.1010977 145.50441842 -0.10372525 150.93053818 -0.11762428 C156.03429682 -0.13020846 161.13784835 -0.12825284 166.24160385 -0.11521339 C168.11204092 -0.11284931 169.98249258 -0.11557625 171.8529129 -0.12383652 C174.41178392 -0.13432007 176.96996206 -0.12619061 179.52880859 -0.11352539 C180.63165422 -0.12458682 180.63165422 -0.12458682 181.75677955 -0.13587171 C187.96415453 -0.07150422 193.47184416 1.24440993 198.35232544 5.31147766 C198.98396606 6.05784485 199.61560669 6.80421204 200.26638794 7.57319641 C200.91349731 8.31182922 201.56060669 9.05046204 202.22732544 9.81147766 C223.49066821 41.10752441 205.89138794 85.4245723 205.89138794 123.26069641 C344.49138794 123.26069641 483.09138794 123.26069641 625.89138794 123.26069641 C625.89138794 123.59069641 625.89138794 123.92069641 625.89138794 124.26069641 C486.96138794 124.26069641 348.03138794 124.26069641 204.89138794 124.26069641 C204.89138794 153.30069641 204.89138794 182.34069641 204.89138794 212.26069641 C201.49823949 219.04699331 201.49823949 219.04699331 197.89138794 222.07319641 C197.21076294 222.65714172 196.53013794 223.24108704 195.82888794 223.84272766 C191.81867721 226.77761978 187.66363606 226.41153441 182.91575623 226.41459656 C182.0939599 226.41897881 181.27216358 226.42336107 180.42546433 226.42787611 C177.66190597 226.44126872 174.8983795 226.44744403 172.13479614 226.4535675 C170.15720983 226.46146812 168.17962497 226.46973705 166.20204163 226.47834778 C159.69876483 226.50457306 153.19548158 226.51987615 146.69216919 226.53413391 C144.45394575 226.53949343 142.21572236 226.54487093 139.97749901 226.55026627 C130.6673059 226.57189593 121.35711453 226.59063274 112.04690266 226.60188866 C98.7018976 226.61812835 85.35718369 226.65130589 72.01228839 226.7082895 C62.63043948 226.74698542 53.24866846 226.76652096 43.86674184 226.77180922 C38.26273195 226.77546319 32.65903255 226.78748965 27.05510902 226.81991196 C21.78141595 226.84998609 16.50822136 226.85630657 11.23446083 226.8445282 C9.30111839 226.84430741 7.36775286 226.85261684 5.4344902 226.87018204 C2.78970838 226.89289978 0.14673015 226.88456723 -2.49806213 226.86869812 C-3.2586846 226.88258021 -4.01930706 226.8964623 -4.80297869 226.91076505 C-10.60285196 226.82533402 -14.63466932 224.94061748 -19.10861206 221.26069641 C-24.09858174 215.62802937 -25.25759967 210.88700518 -25.25578308 203.55081177 C-25.25945977 202.75760031 -25.26313646 201.96438885 -25.26692456 201.14714068 C-25.27796698 198.48031486 -25.2818062 195.813528 -25.28561401 193.14668274 C-25.29187827 191.23806128 -25.29852504 189.32944104 -25.30552673 187.42082214 C-25.32294046 182.22848372 -25.33348965 177.0361545 -25.34173226 171.84379411 C-25.34688194 168.59988829 -25.35295771 165.35598533 -25.35924339 162.11208153 C-25.37829706 151.96302265 -25.39252747 141.81397106 -25.40085536 131.66489774 C-25.41062752 119.94900751 -25.43694586 108.23330623 -25.47735626 96.51748258 C-25.50751679 87.46259329 -25.52232421 78.40775817 -25.52563637 69.35281962 C-25.52798703 63.94447653 -25.53694954 58.53633525 -25.56209755 53.12804604 C-25.5853819 48.03825203 -25.58960995 42.94879266 -25.57933617 37.8589592 C-25.57884078 35.99335174 -25.58516209 34.12772779 -25.59889221 32.26217079 C-25.61662408 29.70954775 -25.60949908 27.15812397 -25.59635925 24.60549927 C-25.6073285 23.87211344 -25.61829774 23.13872761 -25.62959939 22.38311797 C-25.55202734 16.11525758 -23.45055084 11.03038657 -19.39767456 6.23725891 C-18.84853394 5.79124329 -18.29939331 5.34522766 -17.73361206 4.88569641 C-17.18962769 4.42421204 -16.64564331 3.96272766 -16.08517456 3.48725891 C-10.99365818 0.32770131 -5.84776134 -0.02987809 0 0 Z " fill="#0C0D0D" transform="translate(162.10861206054688,112.73930358886719)"/>
<path d="M0 0 C1.56206642 0.07486083 3.12435457 0.14521208 4.68681335 0.21138 C8.86434119 0.40162102 13.03555275 0.6564164 17.20867157 0.92515182 C21.55798476 1.19493488 25.91015221 1.40705773 30.26220703 1.62719727 C39.76275481 2.12007731 49.2563142 2.70506644 58.75019073 3.31151581 C62.37124383 3.54048033 65.99300005 3.75742759 69.61474609 3.97509766 C95.5425783 5.55172505 121.44025773 7.39316996 147.11328125 11.4609375 C148.66160645 11.70046143 148.66160645 11.70046143 150.24121094 11.94482422 C181.15506198 16.81684714 181.15506198 16.81684714 191.11328125 24.4609375 C191.80078125 26.9609375 191.80078125 26.9609375 191.11328125 29.4609375 C169.60834126 49.74041216 116.15639058 47.21958089 87.80078125 49.0859375 C86.52551575 49.17080414 86.52551575 49.17080414 85.2244873 49.25738525 C79.47346588 49.63295933 73.7205485 49.95720645 67.96517944 50.25854492 C65.1665971 50.4055925 62.36838795 50.55665125 59.57022095 50.71118164 C29.91150746 52.33244562 0.31351359 52.77861985 -29.38647461 52.72167969 C-35.36044924 52.71031904 -41.33424479 52.71704928 -47.30821323 52.72857094 C-88.8404544 52.79611738 -130.49059643 52.11084882 -171.88671875 48.4609375 C-172.60845276 48.39755188 -173.33018677 48.33416626 -174.0737915 48.26885986 C-252.25763945 41.35213106 -252.25763945 41.35213106 -263.88671875 30.4609375 C-264.61328125 27.80078125 -264.61328125 27.80078125 -264.88671875 25.4609375 C-257.43633014 18.21191074 -247.41207996 16.00979428 -237.44921875 14.0234375 C-236.42207764 13.81807373 -235.39493652 13.61270996 -234.33666992 13.40112305 C-216.91944755 10.13856664 -199.18644794 8.51212375 -181.56750488 6.73217773 C-179.81860942 6.5552256 -178.06997583 6.3756601 -176.32165527 6.19311523 C-160.36551192 4.53790409 -144.37994919 3.72959193 -128.359375 3.02832031 C-125.4785541 2.90206276 -122.59808243 2.7702514 -119.71777344 2.6328125 C-111.91470257 2.26114625 -104.1122719 1.92740396 -96.30426407 1.67741013 C-92.67453133 1.5608263 -89.04701295 1.42699341 -85.41931152 1.25793457 C-81.75033488 1.08846863 -78.08241351 0.96606721 -74.41067123 0.87553787 C-73.03579526 0.83415378 -71.66128322 0.77713286 -70.28778458 0.70298386 C-59.72147657 0.14850074 -59.72147657 0.14850074 -55.16900635 3.40496826 C-52.79736328 5.81396484 -52.79736328 5.81396484 -50.8364563 8.22201538 C-47.54683888 11.99954801 -44.01592426 13.81565155 -39.07421875 14.3984375 C-33.64045422 14.75159206 -30.22406009 13.72184733 -25.88671875 10.4609375 C-24.46619638 8.74912417 -23.0473171 7.03594668 -21.62963867 5.32177734 C-15.08206332 -1.26137091 -8.62289717 -0.62440929 0 0 Z " fill="#FCDF8E" transform="translate(547.88671875,667.5390625)"/>
<path d="M0 0 C7.26 0 14.52 0 22 0 C22 38.28 22 76.56 22 116 C14.74 116 7.48 116 0 116 C-0.495 111.545 -0.495 111.545 -1 107 C-1.46148437 107.45890625 -1.92296875 107.9178125 -2.3984375 108.390625 C-10.47669087 115.98993054 -18.02359551 118.63578532 -29.09326172 118.54541016 C-35.36123355 118.26395454 -39.89008991 116.52407593 -45 113 C-46.0725 112.278125 -47.145 111.55625 -48.25 110.8125 C-58.02123653 100.81918991 -61.34523701 87.53136365 -61.4375 73.875 C-61.24069506 60.96104219 -58.70543452 48.63032204 -49.9609375 38.6796875 C-42.80211089 31.82441538 -35.84220555 28.82875553 -25.9375 28.5625 C-16.357987 28.89461746 -10.54465455 30.93320787 -3.43359375 37.37890625 C-2 39 -2 39 -2 41 C-1.34 41 -0.68 41 0 41 C0 27.47 0 13.94 0 0 Z " fill="#FAF1E4" transform="translate(458,755)"/>
<path d="M0 0 C4.30600806 2.49407397 7.97104487 5.59921112 10.5 9.9375 C10.5 10.9275 10.5 11.9175 10.5 12.9375 C11.16 12.9375 11.82 12.9375 12.5 12.9375 C12.726875 12.215625 12.95375 11.49375 13.1875 10.75 C15.76897618 5.21826534 20.39014706 2.04784527 25.5 -1.0625 C33.57709552 -3.75486517 43.43367715 -3.11842393 51.125 0.375 C57.726967 4.17830707 61.21010629 8.99042974 63.55368042 16.16175842 C64.48621573 19.88250184 64.7417293 22.9670165 64.72705078 26.79077148 C64.72734283 27.43552933 64.72763489 28.08028717 64.72793579 28.74458313 C64.72655626 30.84939626 64.71106128 32.95384342 64.6953125 35.05859375 C64.69157745 36.52832343 64.6887328 37.99805562 64.68673706 39.4677887 C64.6791393 43.31634523 64.65952447 47.16474829 64.6373291 51.01324463 C64.61678708 54.94826177 64.60771755 58.88330395 64.59765625 62.81835938 C64.57627448 70.5248173 64.54112433 78.2311175 64.5 85.9375 C56.91 85.9375 49.32 85.9375 41.5 85.9375 C41.48541748 84.17639893 41.47083496 82.41529785 41.45581055 80.60083008 C41.40410322 74.77326536 41.33880207 68.94593762 41.26428509 63.11862659 C41.21961336 59.58651334 41.18035062 56.05451456 41.15356445 52.5222168 C41.1225092 48.45852678 41.06772166 44.39545458 41.01171875 40.33203125 C41.00532883 39.0672847 40.9989389 37.80253815 40.99235535 36.49946594 C40.97256119 35.31861923 40.95276703 34.13777252 40.93237305 32.92114258 C40.92126999 31.88411697 40.91016693 30.84709137 40.89872742 29.77864075 C40.30311681 25.53460458 38.60891428 22.88333865 35.375 20.125 C31.32946019 18.45401616 27.81058373 18.12547102 23.5 18.9375 C20.18746499 20.64289409 18.02309477 22.87625308 16.35977173 26.2507782 C15.41240168 29.21123815 15.22246364 31.63231654 15.18115234 34.73754883 C15.16128265 35.87835403 15.14141296 37.01915924 15.12094116 38.1945343 C15.10938995 39.41553329 15.09783875 40.63653229 15.0859375 41.89453125 C15.06657135 43.15263107 15.0472052 44.4107309 15.0272522 45.70695496 C14.97766923 49.03924319 14.93636902 52.37142331 14.89910889 55.70385742 C14.85898376 59.10931239 14.8079304 62.5146019 14.7578125 65.91992188 C14.66182499 72.59235034 14.57776925 79.26483533 14.5 85.9375 C6.91 85.9375 -0.68 85.9375 -8.5 85.9375 C-8.5093457 84.18163574 -8.51869141 82.42577148 -8.52832031 80.61669922 C-8.56390897 74.80107891 -8.61774595 68.98577966 -8.68390274 63.17043877 C-8.72333303 59.64615959 -8.75554282 56.12212859 -8.77099609 52.59765625 C-8.78910326 48.54126248 -8.83907322 44.48579512 -8.890625 40.4296875 C-8.89185364 39.17010223 -8.89308228 37.91051697 -8.89434814 36.61276245 C-9.00473214 27.96847848 -9.00473214 27.96847848 -13.5 20.9375 C-17.51131133 18.18121281 -21.80534937 18.408407 -26.5 18.9375 C-29.78874885 20.22440172 -31.08802517 21.34878501 -33.10083008 24.22509766 C-35.21273646 29.82859589 -34.98104207 35.26894347 -35.01171875 41.2109375 C-35.02966995 42.48981842 -35.04762115 43.76869934 -35.06611633 45.08633423 C-35.11101411 48.46964961 -35.1433628 51.85260559 -35.16955566 55.23608398 C-35.19944997 58.69528203 -35.24594955 62.15425349 -35.29101562 65.61328125 C-35.37592359 72.38793641 -35.44274607 79.16255697 -35.5 85.9375 C-43.09 85.9375 -50.68 85.9375 -58.5 85.9375 C-58.5 57.5575 -58.5 29.1775 -58.5 -0.0625 C-51.57 -0.0625 -44.64 -0.0625 -37.5 -0.0625 C-37.17 3.2375 -36.84 6.5375 -36.5 9.9375 C-36.04625 9.23625 -35.5925 8.535 -35.125 7.8125 C-26.26306513 -1.89342866 -12.20649037 -5.66663556 0 0 Z " fill="#F9EFE3" transform="translate(319.5,786.0625)"/>
<path d="M0 0 C9.02890236 8.25793347 13.34829591 19.20877721 14.12109375 31.19921875 C14.64290594 44.83136854 12.21746816 56.84942362 2.87109375 67.3203125 C-7.72846351 77.39667406 -20.12721948 80.88068641 -34.50390625 80.6328125 C-46.49599437 79.5990118 -57.70559744 74.770997 -65.50390625 65.5078125 C-68.83525098 61.0279598 -71.28718161 56.58376767 -73.12890625 51.3203125 C-73.54140625 50.1446875 -73.95390625 48.9690625 -74.37890625 47.7578125 C-77.32359734 34.31931318 -74.97149652 20.90564019 -68.37890625 8.9453125 C-62.44114307 -0.2136872 -53.54779804 -6.07844152 -43.06640625 -8.9921875 C-27.70288344 -11.83525934 -12.45206696 -9.82456659 0 0 Z " fill="#F8EFE3" transform="translate(702.12890625,793.6796875)"/>
<path d="M0 0 C10.4721462 8.07553562 15.65115017 18.80805122 17.5 31.75 C9.25 31.75 1 31.75 -7.5 31.75 C-9.15 28.45 -10.8 25.15 -12.5 21.75 C-19.36339529 14.88660471 -25.47535359 14.31454015 -34.68212891 14.31176758 C-42.45714754 14.491021 -47.24264364 16.5806803 -52.8125 22 C-61.23280688 35.72198158 -61.81086474 53.14526481 -58.375 68.6875 C-55.79620578 76.84368638 -51.73771627 82.68708859 -44.234375 86.875 C-37.18467094 90.43160745 -26.87000144 89.8780824 -19.26171875 87.9140625 C-13.26402502 85.20190358 -10.39970012 81.52523607 -7.5 75.75 C-6.51 74.265 -6.51 74.265 -5.5 72.75 C-3.16162109 72.40942383 -3.16162109 72.40942383 -0.2734375 72.45703125 C1.2734375 72.4715332 1.2734375 72.4715332 2.8515625 72.48632812 C4.47191406 72.5240332 4.47191406 72.5240332 6.125 72.5625 C7.21296875 72.57603516 8.3009375 72.58957031 9.421875 72.60351562 C12.11507409 72.63895246 14.80729374 72.68835669 17.5 72.75 C16.98455171 78.12440751 15.6863833 82.00565566 13.1875 86.875 C12.59324219 88.05320312 11.99898438 89.23140625 11.38671875 90.4453125 C4.81232033 101.96071842 -5.92838388 107.29592247 -18.29296875 110.8359375 C-22.45422163 111.84462286 -26.41681707 112.09724925 -30.6875 112.0625 C-31.42508545 112.05686035 -32.1626709 112.0512207 -32.92260742 112.04541016 C-47.38624344 111.72938479 -60.87722711 107.10045931 -71.46875 97.0078125 C-82.77955665 84.43541588 -86.91221038 68.56951986 -86.8125 52 C-86.80831055 51.04061523 -86.80412109 50.08123047 -86.79980469 49.09277344 C-86.55314973 33.48003932 -82.89952235 19.63834285 -72.5 7.75 C-71.99984375 7.13253906 -71.4996875 6.51507812 -70.984375 5.87890625 C-54.06570284 -13.30413365 -20.2679579 -12.99694161 0 0 Z " fill="#F9F0E4" transform="translate(228.5,762.25)"/>
<path d="M0 0 C5.82074762 4.11786933 9.86692068 10.42566913 11.25 17.4375 C11.36473688 19.57581743 11.42627503 21.71720198 11.45532227 23.85839844 C11.4852401 25.80996857 11.4852401 25.80996857 11.51576233 27.80096436 C11.53274418 29.2162667 11.54962307 30.63157028 11.56640625 32.046875 C11.58698755 33.49847999 11.60798433 34.95007914 11.62937927 36.40167236 C11.68447851 40.21562972 11.73394115 44.02964007 11.78222656 47.84368896 C11.83253049 51.73828834 11.88817007 55.63281109 11.94335938 59.52734375 C12.0507923 67.16399933 12.15177673 74.8007194 12.25 82.4375 C5.65 82.4375 -0.95 82.4375 -7.75 82.4375 C-8.41 79.4675 -9.07 76.4975 -9.75 73.4375 C-10.306875 73.90800781 -10.86375 74.37851562 -11.4375 74.86328125 C-12.200625 75.48589844 -12.96375 76.10851562 -13.75 76.75 C-14.86375 77.67232422 -14.86375 77.67232422 -16 78.61328125 C-22.24893435 82.75852605 -28.20238523 83.97600419 -35.625 83.875 C-36.80799683 83.86255249 -36.80799683 83.86255249 -38.01489258 83.84985352 C-47.25126425 83.58269753 -53.74061902 81.14480798 -60.27734375 74.51171875 C-64.06583842 69.17566923 -65.2870992 63.94769725 -65.1875 57.5 C-65.1728772 56.44341187 -65.1728772 56.44341187 -65.15795898 55.36547852 C-64.9222174 48.46664079 -63.71092167 44.40456466 -58.8671875 39.55078125 C-45.69753573 28.29285313 -27.33970268 28.15946029 -10.75 28.4375 C-11.61091773 21.71151179 -11.61091773 21.71151179 -14.75 15.875 C-18.31446802 13.31303861 -20.68341169 13.24701196 -25.0625 13.1875 C-26.19300781 13.16171875 -27.32351563 13.1359375 -28.48828125 13.109375 C-32.13625778 13.47635707 -33.91587226 14.13006856 -36.75 16.4375 C-37.74 18.9125 -37.74 18.9125 -38.75 21.4375 C-46.01 21.4375 -53.27 21.4375 -60.75 21.4375 C-60.75 14.03197444 -58.88273521 9.91074991 -53.953125 4.4453125 C-39.84127509 -8.70693162 -16.29837341 -9.47829623 0 0 Z " fill="#F9F0E4" transform="translate(792.75,789.5625)"/>
<path d="M0 0 C24.42 0 48.84 0 74 0 C74 6.93 74 13.86 74 21 C57.5 21 41 21 24 21 C24 30.57 24 40.14 24 50 C39.18 50 54.36 50 70 50 C70 56.27 70 62.54 70 69 C54.82 69 39.64 69 24 69 C24 84.84 24 100.68 24 117 C16.08 117 8.16 117 0 117 C0 78.39 0 39.78 0 0 Z " fill="#FAF1E5" transform="translate(500,755)"/>
<path d="M0 0 C16.17 0 32.34 0 49 0 C49 7.26 49 14.52 49 22 C44.71 22 40.42 22 36 22 C36 43.12 36 64.24 36 86 C40.29 86 44.58 86 49 86 C49 92.93 49 99.86 49 107 C32.83 107 16.66 107 0 107 C0 100.07 0 93.14 0 86 C4.29 86 8.58 86 13 86 C13 64.88 13 43.76 13 22 C8.71 22 4.42 22 0 22 C0 14.74 0 7.48 0 0 Z " fill="#FAF0E4" transform="translate(190,152)"/>
<path d="M0 0 C7.59 0 15.18 0 23 0 C23 7.26 23 14.52 23 22 C28.94 22 34.88 22 41 22 C41 27.94 41 33.88 41 40 C35.06 40 29.12 40 23 40 C23.04411594 46.33596173 23.11391159 52.67092345 23.20751953 59.00634766 C23.23574499 61.16154013 23.25695165 63.31683643 23.27099609 65.47216797 C23.29240347 68.5705283 23.3390432 71.66763827 23.390625 74.765625 C23.39185364 75.72929993 23.39308228 76.69297485 23.39434814 77.68585205 C23.4692244 82.9841031 23.4692244 82.9841031 25.80859375 87.61523438 C29.02856514 89.64995783 32.08211796 89.42888246 35.75 89.25 C39.33875 89.12625 39.33875 89.12625 43 89 C43 94.94 43 100.88 43 107 C32.98228793 109.62759661 21.29574275 111.01067956 11.83984375 105.8125 C6.41755834 102.08277845 2.00492829 97.22250615 0.45021057 90.68989563 C0.00741334 88.04429287 -0.12044964 85.61400948 -0.11352539 82.93432617 C-0.11344986 81.95368698 -0.11337433 80.97304779 -0.11329651 79.96269226 C-0.10813522 78.9166835 -0.10297394 77.87067474 -0.09765625 76.79296875 C-0.0962413 75.71243729 -0.09482635 74.63190582 -0.09336853 73.51863098 C-0.0877808 70.07489224 -0.0752305 66.63121902 -0.0625 63.1875 C-0.05748342 60.84961032 -0.05292079 58.51171961 -0.04882812 56.17382812 C-0.03781538 50.44919358 -0.02055912 44.7246079 0 39 C-4.62 39 -9.24 39 -14 39 C-14 33.39 -14 27.78 -14 22 C-9.38 22 -4.76 22 0 22 C0 14.74 0 7.48 0 0 Z " fill="#F7EEE2" transform="translate(834,764)"/>
<path d="M0 0 C7.59 0 15.18 0 23 0 C23.09072726 10.09305829 23.16396047 20.18584133 23.20724869 30.27921677 C23.22803526 34.96706159 23.25618762 39.65461055 23.30175781 44.34228516 C23.34553684 48.87458412 23.36920409 53.40660029 23.37950897 57.93909454 C23.38684327 59.65969538 23.40116387 61.3802825 23.42292023 63.10076141 C23.56875381 75.1221615 23.19175354 85.95245759 15.5 95.875 C6.9300998 104.65197957 -4.38899085 107.82362385 -16.3125 108.375 C-23.41278444 108.2634241 -30.65160128 106.17419936 -37 103 C-36.85780436 100.79142945 -36.71108153 98.58315013 -36.5625 96.375 C-36.44068359 94.53035156 -36.44068359 94.53035156 -36.31640625 92.6484375 C-36.03336056 89.38467612 -35.58961047 86.22056141 -35 83 C-34.26136719 83.2165625 -33.52273437 83.433125 -32.76171875 83.65625 C-24.59161095 85.89861758 -16.79750897 87.57009384 -8.5625 84.875 C-4.37583514 81.81158668 -1.91889975 78.08845424 -1 73 C-0.88406194 70.61674544 -0.82347307 68.23062571 -0.79467773 65.84472656 C-0.78477814 65.13213181 -0.77487854 64.41953705 -0.76467896 63.68534851 C-0.73316861 61.33714078 -0.70834809 58.98891285 -0.68359375 56.640625 C-0.66301517 55.00965864 -0.64201846 53.37869751 -0.62062073 51.7477417 C-0.56549335 47.46030923 -0.51604301 43.17282937 -0.46777344 38.88531494 C-0.41749017 34.50813594 -0.36183976 30.13102553 -0.30664062 25.75390625 C-0.19917323 17.16932733 -0.09819915 8.58468995 0 0 Z " fill="#FAF0E4" transform="translate(289,153)"/>
<path d="M0 0 C7.59 0 15.18 0 23 0 C23 38.61 23 77.22 23 117 C15.41 117 7.82 117 0 117 C0 78.39 0 39.78 0 0 Z " fill="#FAF1E5" transform="translate(589,755)"/>
<path d="M0 0 C5.94 0 11.88 0 18 0 C15.63673477 9.9553577 12.7629631 19.71828852 9.81671143 29.5138855 C8.27427142 34.64291345 6.74109375 39.77471138 5.20703125 44.90625 C4.71290741 46.55807533 4.71290741 46.55807533 4.20880127 48.24327087 C0.01615036 62.27114582 -4.12221525 76.31506156 -8.26212692 90.3585701 C-8.87640661 92.44227137 -9.49081069 94.52593593 -10.10525513 96.60958862 C-12.4043448 104.40614453 -14.70257534 112.20295327 -17 120 C-23.27 120 -29.54 120 -36 120 C-33.12464503 108.97288722 -29.96953316 98.06561985 -26.640625 87.16796875 C-26.12720832 85.4805589 -25.61400936 83.79308279 -25.10101318 82.10554504 C-23.75836024 77.69103975 -22.41258285 73.27749307 -21.06616211 68.86413574 C-19.9881522 65.32875983 -18.91233862 61.79271754 -17.83664703 58.25663567 C-11.92605574 38.82696825 -5.98935318 19.40554863 0 0 Z " fill="#2C2337" transform="translate(472,310)"/>
<path d="M0 0 C5.99078576 6.35386368 6.21484103 13.46795541 6.16015625 21.76953125 C6.1587413 22.58371017 6.15732635 23.3978891 6.15586853 24.23674011 C6.15029317 26.82453156 6.13774524 29.41223492 6.125 32 C6.11998181 33.75976437 6.11541946 35.51953011 6.11132812 37.27929688 C6.10033181 41.58206494 6.08308421 45.88476756 6.0625 50.1875 C1.7725 50.1875 -2.5175 50.1875 -6.9375 50.1875 C-7.2675 48.5375 -7.5975 46.8875 -7.9375 45.1875 C-8.576875 45.785625 -9.21625 46.38375 -9.875 47 C-16.08385049 51.43489321 -22.08576136 52.85940067 -29.64453125 51.7578125 C-34.36627213 50.58341017 -37.07598665 48.11702756 -40.3125 44.625 C-42.61331945 39.75788192 -42.71863802 35.48187994 -41.9375 30.1875 C-39.36398872 24.94516221 -35.74188365 21.55373819 -30.5 19 C-25.36217287 17.37093286 -20.42906167 17.07023917 -15.0625 17.125 C-13.91007812 17.13402344 -12.75765625 17.14304687 -11.5703125 17.15234375 C-10.70148438 17.16394531 -9.83265625 17.17554688 -8.9375 17.1875 C-9.2164024 12.33625329 -9.2164024 12.33625329 -11.5625 8.25 C-14.96369871 6.7284111 -17.25032731 6.67000208 -20.9375 7.1875 C-21.9584375 8.425 -21.9584375 8.425 -23 9.6875 C-27.87455818 13.83606015 -33.79204328 12.5617159 -39.9375 12.1875 C-39.21471142 6.15859293 -37.33199332 3.2337118 -32.9375 -0.8125 C-22.88737342 -7.09382911 -9.90145881 -6.10941076 0 0 Z " fill="#F6F0E3" transform="translate(521.9375,515.8125)"/>
<path d="M0 0 C4.62 0 9.24 0 14 0 C14.33 7.92 14.66 15.84 15 24 C16.65 22.68 18.3 21.36 20 20 C26.48309675 17.83896775 34.44043388 17.80847784 40.625 20.6875 C45.74261662 25.6704425 49.04819319 29.93832899 49.22705078 37.23950195 C49.22673632 38.90579527 49.21556719 40.57211101 49.1953125 42.23828125 C49.1924826 43.11904831 49.18965271 43.99981537 49.18673706 44.90727234 C49.17557833 47.70915545 49.15048171 50.51071416 49.125 53.3125 C49.11496463 55.21679225 49.10583975 57.12108952 49.09765625 59.02539062 C49.07565309 63.68371797 49.04115294 68.34180406 49 73 C44.38 73 39.76 73 35 73 C34.98541748 71.96593018 34.97083496 70.93186035 34.95581055 69.86645508 C34.89769118 66.01763918 34.82045977 62.16940001 34.73754883 58.32104492 C34.70436345 56.65772892 34.67631166 54.99430204 34.65356445 53.33081055 C34.61990001 50.93490501 34.5675806 48.54000965 34.51171875 46.14453125 C34.50532883 45.4047554 34.4989389 44.66497955 34.49235535 43.90278625 C34.35466939 39.03123934 33.51214271 35.51214271 30 32 C27.80809197 31.6835682 27.80809197 31.6835682 25.25 31.625 C24.38890625 31.57601562 23.5278125 31.52703125 22.640625 31.4765625 C18.75862034 32.2460723 17.44488531 33.9273976 15 37 C14.493448 39.97460988 14.27763142 42.39284604 14.29296875 45.36328125 C14.27784744 46.15526413 14.26272614 46.94724701 14.24714661 47.76322937 C14.2043362 50.27994403 14.19543868 52.79545782 14.1875 55.3125 C14.16435031 57.02412032 14.13898397 58.73571219 14.11132812 60.44726562 C14.0485423 64.63161625 14.01615501 68.81522004 14 73 C9.38 73 4.76 73 0 73 C0 48.91 0 24.82 0 0 Z " fill="#F8F0E2" transform="translate(633,493)"/>
<path d="M0 0 C7.10498187 4.485706 10.47256344 10.40499007 12.375 18.4375 C12.375 22.0675 12.375 25.6975 12.375 29.4375 C0.495 29.4375 -11.385 29.4375 -23.625 29.4375 C-21.6035184 37.80450461 -21.6035184 37.80450461 -18.5 40.5 C-13.312144 42.19169217 -8.58669935 42.37748094 -3.625 40 C-1.73836617 38.5914966 -1.73836617 38.5914966 -0.625 37.4375 C1.56550021 37.52767996 3.753466 37.68416208 5.9375 37.875 C7.13503906 37.97683594 8.33257812 38.07867188 9.56640625 38.18359375 C10.49324219 38.26738281 11.42007813 38.35117187 12.375 38.4375 C11.18285796 42.74380901 10.04889303 45.2944431 6.625 48.1875 C5.97015625 48.75984375 5.3153125 49.3321875 4.640625 49.921875 C-2.38919676 54.62458335 -11.47239069 54.46510508 -19.625 53.4375 C-26.23782107 51.48960201 -30.89874238 48.19626178 -34.625 42.4375 C-37.16387429 36.64588701 -38.17837588 31.86761027 -38.125 25.5625 C-38.11641968 24.38059082 -38.11641968 24.38059082 -38.10766602 23.17480469 C-37.87815735 15.67288512 -36.06144218 10.16357398 -30.91015625 4.578125 C-23.06603254 -2.63091648 -9.85629212 -4.45925449 0 0 Z " fill="#F7F0E3" transform="translate(461.625,513.5625)"/>
<path d="M0 0 C6.00364791 3.36067578 9.41761154 8.72939712 11.55859375 15.15234375 C11.81027848 18.21031317 11.78987663 21.27257586 11.80859375 24.33984375 C11.82921875 25.16548828 11.84984375 25.99113281 11.87109375 26.84179688 C11.91520601 33.83910356 10.83017644 39.46231162 6.18359375 44.96484375 C0.54607933 49.66277244 -3.90273221 51.55348075 -11.2890625 51.4296875 C-16.67706346 50.73540788 -20.48121502 48.11253498 -24.25390625 44.33984375 C-28.68098465 37.88895809 -29.93307641 32.89562924 -29.81640625 25.21484375 C-29.82800781 24.45494141 -29.83960938 23.69503906 -29.8515625 22.91210938 C-29.81300645 15.38725413 -27.90315658 8.61409408 -22.44140625 3.15234375 C-15.96662818 -1.94482196 -7.8190507 -2.7147744 0 0 Z " fill="#2C2337" transform="translate(680.44140625,803.84765625)"/>
<path d="M0 0 C5.7604908 2.77737949 8.80595834 6.73984971 11.75 12.3125 C14.75694606 21.06753079 14.27410613 32.61747346 10.34375 40.94140625 C7.48122973 45.32672073 3.96151644 48.34616119 -1 50 C-7.3614363 50.79094235 -12.05209471 50.26668788 -17.3125 46.48046875 C-23.03338328 41.4614531 -24.63490696 35.27048226 -25.2578125 27.984375 C-25.54951185 19.77789983 -24.91811519 11.42424142 -19.24609375 5.01953125 C-13.1425571 -0.34495503 -8.05865625 -0.75945452 0 0 Z " fill="#2C2337" transform="translate(445,804)"/>
<path d="M0 0 C2.95490059 2.51480901 4.85327776 4.77991663 7 8 C7 9.65 7 11.3 7 13 C3.04 13 -0.92 13 -5 13 C-5.33 12.01 -5.66 11.02 -6 10 C-9.48726348 8.5246193 -13.280501 8.79711824 -17 9 C-20.2243063 10.64137117 -20.2243063 10.64137117 -20.5 13.4375 C-20.26361276 16.16127649 -20.26361276 16.16127649 -17.93359375 17.5703125 C-13.38587192 19.78664564 -8.65296602 20.26254127 -3.69140625 21.05859375 C1.16408709 22.296873 4.47779662 24.47779662 8 28 C9.79573352 32.8484805 9.39085468 37.68948725 7.9375 42.5625 C5.07675315 47.6380186 1.63400525 50.91824257 -3.77734375 53.140625 C-11.57589075 55.22023753 -20.28996538 55.2934744 -27.6875 51.875 C-31.63201454 49.54504549 -34.08733612 47.26002411 -36 43 C-36 41.02 -36 39.04 -36 37 C-31.71 37 -27.42 37 -23 37 C-22.34 38.32 -21.68 39.64 -21 41 C-18.53630468 42.23184766 -16.8105499 42.16732342 -14.0625 42.1875 C-13.18722656 42.20167969 -12.31195313 42.21585938 -11.41015625 42.23046875 C-8.73755665 42.16663349 -8.73755665 42.16663349 -6 40 C-5.7497843 36.91634129 -5.7497843 36.91634129 -6 34 C-10.64248303 31.67875849 -14.94789993 30.57214816 -20.0625 29.625 C-25.81997705 28.46737961 -29.07893743 27.36918401 -33 23 C-35.09182531 18.81634937 -34.42935408 13.55592381 -34 9 C-31.40671141 3.62132737 -27.71057452 0.26073234 -22.3125 -2.25 C-14.62416169 -3.99075584 -7.11702758 -3.55851379 0 0 Z " fill="#F7F0E3" transform="translate(407,514)"/>
<path d="M0 0 C24.42 0 48.84 0 74 0 C74 6.6 74 13.2 74 20 C49.58 20 25.16 20 0 20 C0 13.4 0 6.8 0 0 Z " fill="#874E73" transform="translate(190,297)"/>
<path d="M0 0 C4.0641759 2.47173901 6.77179528 4.79795352 9.25 8.875 C9.90232823 11.60785992 10.10374419 14.04738766 10.25 16.875 C-2.5106376 17.7962225 -2.5106376 17.7962225 -5.5 15.57421875 C-6.5 13.9375 -6.5 13.9375 -7.75 10.875 C-10.95860529 9.27069736 -14.2690457 9.39394682 -17.75 9.875 C-21.83616351 12.27340032 -23.30799914 14.4473586 -24.75 18.875 C-25.47262015 25.76335312 -25.33252569 31.86147473 -21.75 37.875 C-19.27549611 40.61462931 -18.0243153 40.84507469 -14.3125 41.25 C-10.52512139 40.85132857 -8.70280637 40.2372451 -5.75 37.875 C-5.09 36.555 -4.43 35.235 -3.75 33.875 C3.18 34.37 3.18 34.37 10.25 34.875 C9.18344382 41.27433709 7.76833086 45.26183256 2.50390625 49.171875 C-5.36612817 53.84312124 -15.16476604 54.19877787 -24.04296875 52.4140625 C-29.46277376 50.30567154 -34.21588101 46.58226881 -37.078125 41.53125 C-40.99041317 32.16379946 -41.48489766 21.2486513 -37.64453125 11.76171875 C-30.75264331 -2.77444664 -14.21462703 -6.53277021 0 0 Z " fill="#F8F1E3" transform="translate(614.75,514.125)"/>
<path d="M0 0 C2.35125 0.061875 2.35125 0.061875 4.75 0.125 C4.75 4.415 4.75 8.705 4.75 13.125 C3.574375 13.063125 2.39875 13.00125 1.1875 12.9375 C-3.33869982 12.9375 -6.27295857 13.97739763 -10.25 16.125 C-12.72113581 19.83170372 -12.59788589 22.77692181 -12.6640625 27.07421875 C-12.68342865 27.84683548 -12.7027948 28.61945221 -12.7227478 29.41548157 C-12.78248479 31.8810424 -12.82890486 34.34665007 -12.875 36.8125 C-12.91318525 38.4850463 -12.95223731 40.15757305 -12.9921875 41.83007812 C-13.08818133 45.92822647 -13.17223377 50.02646688 -13.25 54.125 C-18.2 54.125 -23.15 54.125 -28.25 54.125 C-28.25 36.635 -28.25 19.145 -28.25 1.125 C-23.96 1.125 -19.67 1.125 -15.25 1.125 C-14.92 3.435 -14.59 5.745 -14.25 8.125 C-13.5075 7.17625 -12.765 6.2275 -12 5.25 C-8.59018411 0.89301303 -5.47656997 -0.14412026 0 0 Z " fill="#F2ECE2" transform="translate(566.25,511.875)"/>
<path d="M0 0 C11.88 0 23.76 0 36 0 C36 5.28 36 10.56 36 16 C24.12 16 12.24 16 0 16 C0 10.72 0 5.44 0 0 Z " fill="#292034" transform="translate(490,398)"/>
<path d="M0 0 C0.18320332 6.48675443 -0.28782693 10.55870397 -4 16 C-8.87003989 20.87003989 -13.83292086 22.10401024 -20.5625 22.375 C-24.36992075 22.31283803 -25.77930377 22.13241774 -29.125 20.125 C-31.52003534 17.41062662 -31.95431632 16.39592521 -32.375 12.75 C-31.99883676 8.98836759 -31.35604546 7.02185359 -28.7109375 4.2890625 C-20.68922123 -1.75469633 -9.4744307 -0.29676291 0 0 Z " fill="#2B2235" transform="translate(782,834)"/>
<path d="M0 0 C16.17 0 32.34 0 49 0 C49 6.93 49 13.86 49 21 C39.8203125 21.1953125 39.8203125 21.1953125 37 21 C36.34 20.34 35.68 19.68 35 19 C38.63 19 42.26 19 46 19 C46 13.72 46 8.44 46 3 C31.81 3 17.62 3 3 3 C3 8.28 3 13.56 3 19 C6.3 19 9.6 19 13 19 C13 19.99 13 20.98 13 22 C8.71 22 4.42 22 0 22 C0 14.74 0 7.48 0 0 Z " fill="#E3E1DD" transform="translate(190,152)"/>
<path d="M0 0 C3.80802445 1.4960096 5.69424557 3.66063151 8 7 C9.06278677 10.19111578 9.12120526 13.1545072 9.11352539 16.50292969 C9.11344986 17.60376892 9.11337433 18.70460815 9.11329651 19.83880615 C9.10813522 21.02121887 9.10297394 22.20363159 9.09765625 23.421875 C9.0962413 24.63699768 9.09482635 25.85212036 9.09336853 27.10406494 C9.08776988 30.98606831 9.0752176 34.86801406 9.0625 38.75 C9.05748483 41.38150958 9.05292195 44.01302007 9.04882812 46.64453125 C9.03780088 53.09637638 9.02053714 59.54817842 9 66 C15.27 66 21.54 66 28 66 C27.98952637 64.44571289 27.97905273 62.89142578 27.96826172 61.29003906 C27.93208267 55.52769267 27.90910705 49.76535633 27.89013672 44.00292969 C27.88007439 41.50812085 27.86642321 39.01332382 27.84912109 36.51855469 C27.82488332 32.93421516 27.81351918 29.35003147 27.8046875 25.765625 C27.79436493 24.64883362 27.78404236 23.53204224 27.77340698 22.38140869 C27.77325592 21.34063171 27.77310486 20.29985474 27.77294922 19.22753906 C27.768508 18.31264709 27.76406677 17.39775513 27.75949097 16.45513916 C28 14 28 14 30 10 C30 29.14 30 48.28 30 68 C22.41 68 14.82 68 7 68 C6.9906543 66.24413574 6.98130859 64.48827148 6.97167969 62.67919922 C6.93609103 56.86357891 6.88225405 51.04827966 6.81609726 45.23293877 C6.77666697 41.70865959 6.74445718 38.18462859 6.72900391 34.66015625 C6.71089674 30.60376248 6.66092678 26.54829512 6.609375 22.4921875 C6.60814636 21.23260223 6.60691772 19.97301697 6.60565186 18.67526245 C6.49668078 12.14996547 6.40902621 7.95267544 2 3 C1.34 2.01 0.68 1.02 0 0 Z " fill="#EDEAE6" transform="translate(304,804)"/>
<path d="M0 0 C24.42 0 48.84 0 74 0 C74 6.93 74 13.86 74 21 C71.36 21 68.72 21 66 21 C66 20.67 66 20.34 66 20 C67.65 19.67 69.3 19.34 71 19 C71 13.72 71 8.44 71 3 C67.88038818 3.02356567 67.88038818 3.02356567 64.69775391 3.04760742 C57.83660776 3.09725234 50.9754538 3.13042849 44.1141758 3.15543652 C39.95297391 3.17111189 35.79195559 3.19238392 31.63085938 3.22631836 C27.61732548 3.25884564 23.60396846 3.27683891 19.59031296 3.28463173 C18.05683989 3.29018723 16.52337682 3.30103544 14.98997879 3.31719017 C12.84678254 3.33887714 10.70432296 3.34197072 8.56103516 3.34057617 C6.72903061 3.35056892 6.72903061 3.35056892 4.86001587 3.36076355 C3.91621063 3.24171158 2.9724054 3.12265961 2 3 C1.34 2.01 0.68 1.02 0 0 Z " fill="#EEE7DF" transform="translate(500,755)"/>
<path d="M0 0 C11.88 0 23.76 0 36 0 C36 0.33 36 0.66 36 1 C31.545 1.495 31.545 1.495 27 2 C26.773125 2.7425 26.54625 3.485 26.3125 4.25 C24.733845 7.55765809 23.00385901 8.94858409 20 11 C15.93172134 12.35609289 12.25370654 12.5298986 8 12 C4.72430468 10.33237329 2.70471566 9.02504096 0.625 6 C0 4 0 4 0 0 Z " fill="#235FC1" transform="translate(438,544)"/>
<path d="M0 0 C4.62 0 9.24 0 14 0 C14 8.25 14 16.5 14 25 C13.67 25 13.34 25 13 25 C13 17.41 13 9.82 13 2 C9.7 2.33 6.4 2.66 3 3 C2.67 25.77 2.34 48.54 2 72 C5.63 72 9.26 72 13 72 C13 60.45 13 48.9 13 37 C13.33 37 13.66 37 14 37 C14 48.88 14 60.76 14 73 C9.38 73 4.76 73 0 73 C0 48.91 0 24.82 0 0 Z " fill="#E9EBE2" transform="translate(633,493)"/>
<path d="M0 0 C2.12890625 0.484375 2.12890625 0.484375 4.69140625 2.609375 C6.38310394 5.99277038 6.75086556 7.75261914 6.12890625 11.484375 C4.32896851 14.18428162 3.04513325 16.0262615 0.12890625 17.484375 C-2.74609375 17.796875 -2.74609375 17.796875 -5.87109375 17.484375 C-9.14318532 14.83132778 -10.71561917 12.88364621 -11.18359375 8.671875 C-10.481971 1.51532299 -6.6497158 -0.39438183 0 0 Z " fill="#F6F0E2" transform="translate(351.87109375,515.515625)"/>
<path d="M0 0 C3.48326597 0.85529699 4.97293913 2.60978164 6.97265625 5.484375 C7.71728865 9.45574781 7.34532503 10.92537183 5.09765625 14.296875 C2.56418801 16.90485701 1.70007818 17.4053074 -1.90234375 17.796875 C-5.02734375 17.484375 -5.02734375 17.484375 -7.33984375 15.609375 C-10.11327489 12.11690616 -10.46438461 9.94219182 -10.02734375 5.484375 C-7.61458248 0.85991589 -5.2803869 -0.35531575 0 0 Z " fill="#F7F1E3" transform="translate(351.02734375,549.515625)"/>
<path d="M0 0 C1.07765625 0.00902344 2.1553125 0.01804687 3.265625 0.02734375 C4.08546875 0.03894531 4.9053125 0.05054688 5.75 0.0625 C5.38126118 6.20814694 3.97746623 8.83503377 -0.25 13.0625 C-3.84264452 14.26004817 -6.47717474 14.39344958 -10.25 14.0625 C-12.6875 12.4375 -12.6875 12.4375 -14.25 10.0625 C-14.75 7 -14.75 7 -14.25 4.0625 C-10.19935911 -0.13280664 -5.55224936 -0.06035054 0 0 Z " fill="#2863C2" transform="translate(508.25,542.9375)"/>
<path d="M0 0 C4.6633307 -0.04586883 9.3258814 -0.08570572 13.98925781 -0.10986328 C15.57619883 -0.11993188 17.16312125 -0.13358767 18.75 -0.15087891 C21.02869247 -0.17509001 23.30714006 -0.18647422 25.5859375 -0.1953125 C26.29744965 -0.20563507 27.00896179 -0.21595764 27.74203491 -0.22659302 C29.49631665 -0.22699422 31.24996709 -0.12202209 33 0 C33.66 0.66 34.32 1.32 35 2 C34.10796875 2.06058594 33.2159375 2.12117188 32.296875 2.18359375 C30.54117188 2.30927734 30.54117188 2.30927734 28.75 2.4375 C27.00976562 2.55931641 27.00976562 2.55931641 25.234375 2.68359375 C22.15009466 2.90061039 22.15009466 2.90061039 19.81640625 3.56640625 C17.17213553 4.19761926 14.75716264 3.58443405 12.10546875 3.19140625 C8.93011285 2.90273753 6.12484393 3.41409176 3 4 C3.01160156 4.84304688 3.02320313 5.68609375 3.03515625 6.5546875 C3.04869141 8.19824219 3.04869141 8.19824219 3.0625 9.875 C3.07410156 10.96554687 3.08570313 12.05609375 3.09765625 13.1796875 C3 16 3 16 2 18 C21.8 18.495 21.8 18.495 42 19 C42 19.33 42 19.66 42 20 C28.14 20 14.28 20 0 20 C0 13.4 0 6.8 0 0 Z " fill="#D44263" transform="translate(190,297)"/>
<path d="M0 0 C3 1.625 3 1.625 5 4 C5.33 5.98 5.66 7.96 6 10 C-1.26 10 -8.52 10 -16 10 C-14.99282785 4.96413924 -14.65953092 4.10505654 -11 1 C-7.53154217 -0.73422892 -3.79228327 -0.46502956 0 0 Z " fill="#245FC2" transform="translate(454,523)"/>
<path d="M0 0 C2.9375 1.5625 2.9375 1.5625 5 4 C5 6.31 5 8.62 5 11 C-6.385 11.99 -6.385 11.99 -18 13 C-15.68143083 11.45428722 -13.49361571 10.20381448 -11 9 C-13.97 8.505 -13.97 8.505 -17 8 C-17 7.67 -17 7.34 -17 7 C-15.35 7 -13.7 7 -12 7 C-11.9175 6.401875 -11.835 5.80375 -11.75 5.1875 C-9.82936314 -0.41435751 -5.31762249 -0.65304136 0 0 Z " fill="#1F5BC1" transform="translate(508,522)"/>
<path d="M0 0 C7.59 0 15.18 0 23 0 C22.67 19.14 22.34 38.28 22 58 C21.67 58 21.34 58 21 58 C21 39.52 21 21.04 21 2 C14.4 2 7.8 2 1 2 C1 24.77 1 47.54 1 71 C0.67 71 0.34 71 0 71 C0 47.57 0 24.14 0 0 Z " fill="#FEFEFB" transform="translate(289,153)"/>
<path d="M0 0 C0 6.93 0 13.86 0 21 C-15.84 21 -31.68 21 -48 21 C-48 15.72 -48 10.44 -48 5 C-47.67 5 -47.34 5 -47 5 C-46.67 9.62 -46.34 14.24 -46 19 C-31.48 19 -16.96 19 -2 19 C-2 13.39 -2 7.78 -2 2 C-5.3 2 -8.6 2 -12 2 C-12 1.67 -12 1.34 -12 1 C-10.37512529 0.83211627 -8.75009558 0.66573213 -7.125 0.5 C-6.22007812 0.4071875 -5.31515625 0.314375 -4.3828125 0.21875 C-2 0 -2 0 0 0 Z " fill="#FDFCF7" transform="translate(239,238)"/>
<path d="M0 0 C4.29 0 8.58 0 13 0 C13 0.66 13 1.32 13 2 C9.37 2 5.74 2 2 2 C2 6.62 2 11.24 2 16 C5.1865625 15.9690625 5.1865625 15.9690625 8.4375 15.9375 C10.62499611 15.91626217 12.81360547 15.92741054 15 16 C16 17 16 17 16.11352539 20.87719727 C16.11336621 22.60694167 16.10766849 24.33669081 16.09765625 26.06640625 C16.0962413 26.97502914 16.09482635 27.88365204 16.09336853 28.81980896 C16.08775193 31.73407221 16.07519665 34.64825981 16.0625 37.5625 C16.05748714 39.53320202 16.05292386 41.50390524 16.04882812 43.47460938 C16.03777711 48.31643559 16.02050138 53.15820495 16 58 C15.01 58.495 15.01 58.495 14 59 C14 45.14 14 31.28 14 17 C9.38 17 4.76 17 0 17 C0 11.39 0 5.78 0 0 Z " fill="#FDFBF3" transform="translate(820,786)"/>
<path d="M0 0 C15.51 0 31.02 0 47 0 C47 5.94 47 11.88 47 18 C43.04 18 39.08 18 35 18 C35 17.67 35 17.34 35 17 C38.63 17 42.26 17 46 17 C46 11.72 46 6.44 46 1 C31.81 1 17.62 1 3 1 C3 6.28 3 11.56 3 17 C6.3 17 9.6 17 13 17 C13 17.99 13 18.98 13 20 C8.71 20 4.42 20 0 20 C0 13.4 0 6.8 0 0 Z " fill="#F3E8DB" transform="translate(190,154)"/>
<path d="M0 0 C0.91120605 0.01047363 1.82241211 0.02094727 2.76123047 0.03173828 C3.74736328 0.03818359 4.73349609 0.04462891 5.74951172 0.05126953 C7.29832031 0.07640625 7.29832031 0.07640625 8.87841797 0.10205078 C9.91869141 0.11107422 10.95896484 0.12009766 12.03076172 0.12939453 C14.60520889 0.15301331 17.17920009 0.18594929 19.75341797 0.22705078 C20.24841797 1.21705078 20.24841797 1.21705078 20.75341797 2.22705078 C13.16341797 2.22705078 5.57341797 2.22705078 -2.24658203 2.22705078 C-2.24658203 9.48705078 -2.24658203 16.74705078 -2.24658203 24.22705078 C-6.86658203 24.22705078 -11.48658203 24.22705078 -16.24658203 24.22705078 C-16.24658203 23.56705078 -16.24658203 22.90705078 -16.24658203 22.22705078 C-12.28658203 22.22705078 -8.32658203 22.22705078 -4.24658203 22.22705078 C-4.26978516 20.80650391 -4.29298828 19.38595703 -4.31689453 17.92236328 C-4.33564974 16.06559769 -4.3538502 14.20882643 -4.37158203 12.35205078 C-4.38833984 11.41490234 -4.40509766 10.47775391 -4.42236328 9.51220703 C-4.42880859 8.61630859 -4.43525391 7.72041016 -4.44189453 6.79736328 C-4.45236816 5.96994629 -4.4628418 5.1425293 -4.47363281 4.29003906 C-4.13375715 1.20192152 -3.05030887 0.30827942 0 0 Z " fill="#150D24" transform="translate(836.24658203125,761.77294921875)"/>
<path d="M0 0 C5.28 0 10.56 0 16 0 C16 6.6 16 13.2 16 20 C10.72 20 5.44 20 0 20 C0 19.67 0 19.34 0 19 C4.29 19 8.58 19 13 19 C12.814375 18.030625 12.62875 17.06125 12.4375 16.0625 C11.78143953 11.61586794 12.34865134 7.41915017 13 3 C11.68 3.99 10.36 4.98 9 6 C9 4.68 9 3.36 9 2 C7.88625 2.165 6.7725 2.33 5.625 2.5 C2 3 2 3 0 3 C0 2.01 0 1.02 0 0 Z " fill="#325997" transform="translate(248,297)"/>
<path d="M0 0 C0.33 0 0.66 0 1 0 C1 18.15 1 36.3 1 55 C-6.59 55 -14.18 55 -22 55 C-22 54.34 -22 53.68 -22 53 C-15.07 53 -8.14 53 -1 53 C-0.67 35.51 -0.34 18.02 0 0 Z " fill="#DBD2CE" transform="translate(283,817)"/>
<path d="M0 0 C0.33 0 0.66 0 1 0 C1.33 14.19 1.66 28.38 2 43 C-5.59 43 -13.18 43 -21 43 C-21 42.34 -21 41.68 -21 41 C-14.07 41 -7.14 41 0 41 C0 27.47 0 13.94 0 0 Z " fill="#EBE8E2" transform="translate(610,829)"/>
<path d="M0 0 C2.12472576 -0.05386629 4.24983652 -0.09273071 6.375 -0.125 C7.55835938 -0.14820313 8.74171875 -0.17140625 9.9609375 -0.1953125 C13 0 13 0 15 2 C15.22705078 4.15478516 15.22705078 4.15478516 15.1953125 6.7890625 C15.18886719 7.73007812 15.18242188 8.67109375 15.17578125 9.640625 C15.15902344 10.62546875 15.14226563 11.6103125 15.125 12.625 C15.11597656 13.61757813 15.10695313 14.61015625 15.09765625 15.6328125 C15.07404116 18.08878134 15.04110799 20.54427168 15 23 C16.65 22.34 18.3 21.68 20 21 C15.25 25.875 15.25 25.875 13 27 C13 18.75 13 10.5 13 2 C8.38 2 3.76 2 -1 2 C-0.67 1.34 -0.34 0.68 0 0 Z " fill="#1C5AC0" transform="translate(634,491)"/>
<path d="M0 0 C4.29 0 8.58 0 13 0 C13 0.99 13 1.98 13 3 C9.7 3 6.4 3 3 3 C3 8.61 3 14.22 3 20 C2.01 20.33 1.02 20.66 0 21 C0 14.07 0 7.14 0 0 Z " fill="#E9E1D7" transform="translate(190,238)"/>
<path d="M0 0 C7.12134764 -0.08185457 13.94278228 0.05903764 21 1 C21 1.33 21 1.66 21 2 C14.73 2 8.46 2 2 2 C2 8.6 2 15.2 2 22 C1.34 22.33 0.68 22.66 0 23 C0 15.41 0 7.82 0 0 Z " fill="#FEFCF3" transform="translate(834,764)"/>
<path d="M0 0 C7.26 0 14.52 0 22 0 C21.67 1.65 21.34 3.3 21 5 C20.67 4.34 20.34 3.68 20 3 C13.73 3 7.46 3 1 3 C0.67 2.01 0.34 1.02 0 0 Z " fill="#EFE8E1" transform="translate(458,755)"/>
<path d="M0 0 C0.66 0 1.32 0 2 0 C2 3.63 2 7.26 2 11 C-9.88 10.67 -21.76 10.34 -34 10 C-34 9.67 -34 9.34 -34 9 C-23.11 9 -12.22 9 -1 9 C-1 6.69 -1 4.38 -1 2 C-0.67 1.34 -0.34 0.68 0 0 Z " fill="#EDE8E0" transform="translate(472,532)"/>
<path d="M0 0 C4.12494151 -0.05784708 8.24977944 -0.09354407 12.375 -0.125 C13.550625 -0.14175781 14.72625 -0.15851563 15.9375 -0.17578125 C17.61972656 -0.18544922 17.61972656 -0.18544922 19.3359375 -0.1953125 C20.37282715 -0.20578613 21.4097168 -0.21625977 22.47802734 -0.22705078 C25 0 25 0 27 2 C26.10796875 2.06058594 25.2159375 2.12117188 24.296875 2.18359375 C22.54117188 2.30927734 22.54117188 2.30927734 20.75 2.4375 C19.00976562 2.55931641 19.00976562 2.55931641 17.234375 2.68359375 C14.15656196 2.88052938 14.15656196 2.88052938 11.90625 3.625 C9.20976033 4.15545698 7.33814356 3.41386301 4.75 2.5625 C3.85796875 2.27503906 2.9659375 1.98757813 2.046875 1.69140625 C1.37140625 1.46324219 0.6959375 1.23507812 0 1 C0 0.67 0 0.34 0 0 Z " fill="#B8415C" transform="translate(198,297)"/>
<path d="M0 0 C0.99 0 1.98 0 3 0 C2.89013032 3.27152618 2.7595003 6.54190114 2.625 9.8125 C2.5940625 10.74126953 2.563125 11.67003906 2.53125 12.62695312 C2.49257813 13.51962891 2.45390625 14.41230469 2.4140625 15.33203125 C2.36693115 16.56530151 2.36693115 16.56530151 2.31884766 17.82348633 C2 20 2 20 0 23 C-1.55608229 19.88783541 -1.14322832 16.5992342 -1.125 13.1875 C-1.12886719 12.47529297 -1.13273438 11.76308594 -1.13671875 11.02929688 C-1.12968433 7.22719071 -0.914708 3.69512993 0 0 Z " fill="#EBE5DE" transform="translate(628,816)"/>
<path d="M0 0 C1.5 1.5 1.5 1.5 3 4 C3 6.64 3 9.28 3 12 C-3.6 12 -10.2 12 -17 12 C-16.67 11.01 -16.34 10.02 -16 9 C-10.72 9 -5.44 9 0 9 C0 6.03 0 3.06 0 0 Z " fill="#D7CFC8" transform="translate(802,860)"/>
<path d="M0 0 C8.25 0 16.5 0 25 0 C25 0.66 25 1.32 25 2 C19.77059014 2.91154851 14.9755096 3.04526154 9.6875 2.6875 C8.97271484 2.65205078 8.25792969 2.61660156 7.52148438 2.58007812 C2.24700547 2.24700547 2.24700547 2.24700547 0 0 Z " fill="#91587D" transform="translate(223,297)"/>
<path d="M0 0 C0.33 0 0.66 0 1 0 C1.33 2.64 1.66 5.28 2 8 C-5.59 8 -13.18 8 -21 8 C-21 7.34 -21 6.68 -21 6 C-14.07 6 -7.14 6 0 6 C0 4.02 0 2.04 0 0 Z " fill="#DCD9D7" transform="translate(282,864)"/>
<path d="M0 0 C0.75410156 0.00451172 1.50820313 0.00902344 2.28515625 0.01367188 C4.14847127 0.02546501 6.01174555 0.04340058 7.875 0.0625 C7.875 0.3925 7.875 0.7225 7.875 1.0625 C10.515 1.3925 13.155 1.7225 15.875 2.0625 C15.875 2.3925 15.875 2.7225 15.875 3.0625 C7.295 3.0625 -1.285 3.0625 -10.125 3.0625 C-10.125 2.4025 -10.125 1.7425 -10.125 1.0625 C-6.93675432 -0.53162284 -3.49603338 -0.03924735 0 0 Z " fill="#392C3E" transform="translate(447.125,718.9375)"/>
<path d="M0 0 C0.33 0 0.66 0 1 0 C1 6.27 1 12.54 1 19 C-3.95 19 -8.9 19 -14 19 C-14 18.67 -14 18.34 -14 18 C-9.71 18 -5.42 18 -1 18 C-1.20625 17.071875 -1.4125 16.14375 -1.625 15.1875 C-2.40390737 10.00189748 -1.10708579 5.05965654 0 0 Z " fill="#437BD4" transform="translate(262,298)"/>
<path d="M0 0 C0.33 0 0.66 0 1 0 C1.33 5.61 1.66 11.22 2 17 C5.63 17.33 9.26 17.66 13 18 C13 18.66 13 19.32 13 20 C8.71 20 4.42 20 0 20 C0 13.4 0 6.8 0 0 Z " fill="#E3DFD6" transform="translate(190,154)"/>
<path d="M0 0 C0.66 0.33 1.32 0.66 2 1 C2 3.97 2 6.94 2 10 C7.94 10 13.88 10 20 10 C20 10.33 20 10.66 20 11 C19.15236084 10.99214478 19.15236084 10.99214478 18.28759766 10.98413086 C15.7334097 10.96337578 13.17923947 10.9503446 10.625 10.9375 C9.73554688 10.92912109 8.84609375 10.92074219 7.9296875 10.91210938 C7.07890625 10.90888672 6.228125 10.90566406 5.3515625 10.90234375 C4.56604004 10.89710693 3.78051758 10.89187012 2.97119141 10.88647461 C0.92227332 10.87426047 0.92227332 10.87426047 -1 12 C-1.02698189 10.37509046 -1.04638757 8.75005367 -1.0625 7.125 C-1.07410156 6.22007812 -1.08570313 5.31515625 -1.09765625 4.3828125 C-1 2 -1 2 0 0 Z " fill="#E6DCD3" transform="translate(459,859)"/>
<path d="M0 0 C2.51005664 3.76508495 2.0258295 6.39461609 1.625 10.6875 C1.56828125 11.38939453 1.5115625 12.09128906 1.453125 12.81445312 C1.31195359 14.54380285 1.15728041 16.27204088 1 18 C0.01 18 -0.98 18 -2 18 C-1.85860519 15.74971671 -1.71171997 13.49977794 -1.5625 11.25 C-1.48128906 9.99703125 -1.40007812 8.7440625 -1.31640625 7.453125 C-1.07484478 4.81682447 -0.75716066 2.51962706 0 0 Z " fill="#EDE7E1" transform="translate(144,792)"/>
<path d="M0 0 C6.625 -0.25 6.625 -0.25 10 2 C10 2.99 10 3.98 10 5 C6.98968256 5.93423645 6.13349732 6.04449911 3 5 C3 4.34 3 3.68 3 3 C2.01 2.67 1.02 2.34 0 2 C0 1.34 0 0.68 0 0 Z " fill="#3068C5" transform="translate(501,522)"/>
<path d="M0 0 C0.33 0 0.66 0 1 0 C1 2.31 1 4.62 1 7 C-0.65 7.33 -2.3 7.66 -4 8 C-4 8.33 -4 8.66 -4 9 C-5.45823212 9.0270043 -6.91660675 9.04639787 -8.375 9.0625 C-9.18710937 9.07410156 -9.99921875 9.08570313 -10.8359375 9.09765625 C-13 9 -13 9 -15 8 C-15 7.34 -15 6.68 -15 6 C-10.05 5.67 -5.1 5.34 0 5 C0 3.35 0 1.7 0 0 Z " fill="#392F42" transform="translate(779,810)"/>
<path d="M0 0 C6.27 0 12.54 0 19 0 C18.01 0.495 18.01 0.495 17 1 C17 1.66 17 2.32 17 3 C14.91731407 3.08126087 12.83371342 3.13930839 10.75 3.1875 C9.00976562 3.23970703 9.00976562 3.23970703 7.234375 3.29296875 C4 3 4 3 0 0 Z " fill="#3C2E3F" transform="translate(581,668)"/>
<path d="M0 0 C2.19459255 0.98378287 3.79664694 1.77896406 5.4375 3.5625 C7.49199044 5.45263121 9.27994277 5.6324247 12 6 C11.34 7.98 10.68 9.96 10 12 C9.34 12 8.68 12 8 12 C7.4121875 10.700625 7.4121875 10.700625 6.8125 9.375 C4.86106043 5.74128495 2.71596841 3.08299117 0 0 Z " fill="#211B29" transform="translate(322,787)"/>
<path d="M0 0 C4.62 0 9.24 0 14 0 C12.68 0.33 11.36 0.66 10 1 C10 1.66 10 2.32 10 3 C6.37 3 2.74 3 -1 3 C-0.67 2.01 -0.34 1.02 0 0 Z " fill="#3E3544" transform="translate(427,873)"/>
<path d="M0 0 C1.49828872 3.88235819 0.43110582 6.43449288 -0.9375 10.25 C-1.31777344 11.32765625 -1.69804687 12.4053125 -2.08984375 13.515625 C-2.39019531 14.33546875 -2.69054687 15.1553125 -3 16 C-4.12758089 12.61725734 -3.81750262 11.23221777 -3.0625 7.8125 C-2.86785156 6.91144531 -2.67320312 6.01039063 -2.47265625 5.08203125 C-2.31667969 4.39496094 -2.16070312 3.70789063 -2 3 C-1.34 3 -0.68 3 0 3 C0 2.01 0 1.02 0 0 Z " fill="#1A1524" transform="translate(461,402)"/>
<path d="M0 0 C0.7940625 -0.01417969 1.588125 -0.02835937 2.40625 -0.04296875 C4.5 0.1875 4.5 0.1875 6.5 2.1875 C0.56 2.6825 0.56 2.6825 -5.5 3.1875 C-5.83 2.5275 -6.16 1.8675 -6.5 1.1875 C-4.14653604 0.01076802 -2.6193967 0.02126134 0 0 Z " fill="#AA4B69" transform="translate(218.5,296.8125)"/>
<path d="M0 0 C0.33 0 0.66 0 1 0 C2.03590199 5.05002222 2.10251672 9.87416389 2 15 C1.01 14.67 0.02 14.34 -1 14 C-1.08333357 9.1666528 -0.95261487 4.76307437 0 0 Z " fill="#F0E9E0" transform="translate(143,811)"/>
<path d="M0 0 C4.62 0 9.24 0 14 0 C10.83759418 2.10827055 9.49342531 2.33817465 5.8125 2.625 C4.46091797 2.73714844 4.46091797 2.73714844 3.08203125 2.8515625 C2.05142578 2.92503906 2.05142578 2.92503906 1 3 C0.67 2.01 0.34 1.02 0 0 Z " fill="#ECE7E1" transform="translate(425,784)"/>
<path d="M0 0 C2.64 0.33 5.28 0.66 8 1 C8 1.99 8 2.98 8 4 C4.7 3.67 1.4 3.34 -2 3 C-1.34 2.01 -0.68 1.02 0 0 Z " fill="#EAD68E" transform="translate(320,706)"/>
<path d="M0 0 C4.29 0 8.58 0 13 0 C13 0.66 13 1.32 13 2 C7.96488101 3.0070238 4.76052962 2.97387813 0 1 C0 0.67 0 0.34 0 0 Z " fill="#6C5E8B" transform="translate(235,297)"/>
<path d="M0 0 C0.66 0 1.32 0 2 0 C0.72278474 4.99275057 -1.17330957 7.57611908 -5 11 C-5.66 10.67 -6.32 10.34 -7 10 C-6.57847656 9.44570313 -6.15695313 8.89140625 -5.72265625 8.3203125 C-5.17480469 7.59585938 -4.62695312 6.87140625 -4.0625 6.125 C-3.51722656 5.40570312 -2.97195312 4.68640625 -2.41015625 3.9453125 C-0.96035376 2.05642921 -0.96035376 2.05642921 0 0 Z " fill="#1F1929" transform="translate(240,851)"/>
<path d="M0 0 C2.2578125 1.515625 2.2578125 1.515625 4 3 C2.04196493 3.05389087 0.08351091 3.09274217 -1.875 3.125 C-2.96554687 3.14820313 -4.05609375 3.17140625 -5.1796875 3.1953125 C-8 3 -8 3 -10 1 C-6.86967764 -0.56516118 -3.40926916 -0.540337 0 0 Z " fill="#EDD28B" transform="translate(625,672)"/>
<path d="M0 0 C5.78591511 -0.10477512 11.29309366 0.00749455 17 1 C17 1.33 17 1.66 17 2 C11.555 2.495 11.555 2.495 6 3 C6 2.67 6 2.34 6 2 C3.03 1.505 3.03 1.505 0 1 C0 0.67 0 0.34 0 0 Z " fill="#356EC5" transform="translate(487,530)"/>
<path d="M0 0 C3.63 0 7.26 0 11 0 C11 0.99 11 1.98 11 3 C5.04296875 3.29296875 5.04296875 3.29296875 3 3 C2.01 2.01 1.02 1.02 0 0 Z " fill="#382D3E" transform="translate(606,669)"/>
<path d="M0 0 C1.6396875 0.0928125 1.6396875 0.0928125 3.3125 0.1875 C3.6425 1.1775 3.9725 2.1675 4.3125 3.1875 C0.6825 3.1875 -2.9475 3.1875 -6.6875 3.1875 C-3.6875 0.1875 -3.6875 0.1875 0 0 Z " fill="#372C3E" transform="translate(634.6875,715.8125)"/>
<path d="M0 0 C2.64 0 5.28 0 8 0 C7.67 0.99 7.34 1.98 7 3 C4.69 3 2.38 3 0 3 C0 2.01 0 1.02 0 0 Z " fill="#4F639F" transform="translate(248,297)"/>
<path d="M0 0 C0.33 0 0.66 0 1 0 C1.12375 0.78375 1.2475 1.5675 1.375 2.375 C1.79117993 5.14057822 1.79117993 5.14057822 4 7 C2.68 8.32 1.36 9.64 0 11 C0 7.37 0 3.74 0 0 Z " fill="#0F0B19" transform="translate(282,786)"/>
<path d="M0 0 C-0.33 0.99 -0.66 1.98 -1 3 C-4.96 2.67 -8.92 2.34 -13 2 C-13 1.67 -13 1.34 -13 1 C-11.20843648 0.83222817 -9.4167455 0.66581706 -7.625 0.5 C-6.62726562 0.4071875 -5.62953125 0.314375 -4.6015625 0.21875 C-2 0 -2 0 0 0 Z " fill="#D6D0CF" transform="translate(877,853)"/>
<path d="M0 0 C-0.33 0.66 -0.66 1.32 -1 2 C-3.875 2.75 -3.875 2.75 -7 3 C-7.99 2.34 -8.98 1.68 -10 1 C-3.71428571 -1.42857143 -3.71428571 -1.42857143 0 0 Z " fill="#F0E9E1" transform="translate(766,833)"/>
<path d="M0 0 C0.33 0.99 0.66 1.98 1 3 C-0.32 4.32 -1.64 5.64 -3 7 C-3.99 6.67 -4.98 6.34 -6 6 C-4.02 4.02 -2.04 2.04 0 0 Z " fill="#EDE8E2" transform="translate(412,790)"/>
<path d="M0 0 C0.33 0 0.66 0 1 0 C1 2.97 1 5.94 1 9 C0.01 9 -0.98 9 -2 9 C-1.34 6.03 -0.68 3.06 0 0 Z " fill="#EBE6E2" transform="translate(459,413)"/>
</svg>
