<?xml version="1.0" encoding="UTF-8"?>
<svg version="1.1" xmlns="http://www.w3.org/2000/svg" width="40" height="40">
<path d="M0 0 C13.2 0 26.4 0 40 0 C40 13.2 40 26.4 40 40 C26.8 40 13.6 40 0 40 C0 26.8 0 13.6 0 0 Z " fill="#030F1B" transform="translate(0,0)"/>
<path d="M0 0 C2.24658203 -0.34057617 2.24658203 -0.34057617 5.0078125 -0.29296875 C5.99394531 -0.28330078 6.98007813 -0.27363281 7.99609375 -0.26367188 C9.02863281 -0.23853516 10.06117187 -0.21339844 11.125 -0.1875 C12.68541016 -0.16719727 12.68541016 -0.16719727 14.27734375 -0.14648438 C16.85207627 -0.11105228 19.4257833 -0.06165221 22 0 C23.64285685 3.28571371 23.22630526 6.89247533 23.25 10.5 C23.270625 11.28503906 23.29125 12.07007813 23.3125 12.87890625 C23.328125 15.15625 23.328125 15.15625 23 19 C18.82856144 21.78095904 15.40037332 21.33070347 10.5 21.3125 C9.63246094 21.32861328 8.76492187 21.34472656 7.87109375 21.36132812 C7.03707031 21.36197266 6.20304688 21.36261719 5.34375 21.36328125 C4.58255859 21.36626221 3.82136719 21.36924316 3.03710938 21.37231445 C0.4355145 20.89683121 -0.44069474 20.11122325 -2 18 C-2.2719239 15.40356536 -2.37409761 13.08709951 -2.3125 10.5 C-2.31572266 9.82324219 -2.31894531 9.14648438 -2.32226562 8.44921875 C-2.28230168 4.76526986 -2.09194697 3.13792046 0 0 Z " fill="#4E5860" transform="translate(9,9)"/>
<path d="M0 0 C1.65 1.32 3.3 2.64 5 4 C4.60196439 6.88575819 4.20990931 7.82189513 1.9375 9.75 C1.298125 10.1625 0.65875 10.575 0 11 C0 8 0 8 2 5 C1.01 3.68 0.02 2.36 -1 1 C-0.67 0.67 -0.34 0.34 0 0 Z " fill="#EFEFF0" transform="translate(14,14)"/>
<path d="M0 0 C1.98 0 3.96 0 6 0 C6.33 0.99 6.66 1.98 7 3 C4.69 3 2.38 3 0 3 C0 2.01 0 1.02 0 0 Z " fill="#D2D4D6" transform="translate(21,22)"/>
</svg>
