<?xml version="1.0" encoding="UTF-8"?>
<svg version="1.1" xmlns="http://www.w3.org/2000/svg" width="1024" height="1024">
<path d="M0 0 C337.92 0 675.84 0 1024 0 C1024 337.92 1024 675.84 1024 1024 C686.08 1024 348.16 1024 0 1024 C0 686.08 0 348.16 0 0 Z " fill="#17181E" transform="translate(0,0)"/>
<path d="M0 0 C52.91906382 -0.06867526 105.83812313 -0.12153344 158.75722276 -0.15319599 C165.00562905 -0.15694808 171.25403525 -0.16083105 177.50244141 -0.16479492 C178.74638004 -0.16558185 179.99031868 -0.16636878 181.27195242 -0.16717956 C201.41032246 -0.18023141 221.54866679 -0.20388406 241.68702158 -0.23145839 C262.3527447 -0.2595187 283.01845437 -0.27617759 303.68419576 -0.28226548 C316.43476259 -0.28638062 329.18525677 -0.29937535 341.93580124 -0.3237494 C350.68080436 -0.33961429 359.42576994 -0.34439864 368.17078641 -0.34050413 C373.21523662 -0.33858378 378.2595599 -0.34151577 383.3039875 -0.35761642 C387.92703915 -0.37226407 392.54987904 -0.37292086 397.17294064 -0.36269668 C398.84071132 -0.36143388 400.50849545 -0.36519806 402.17623982 -0.37464955 C414.83056585 -0.4421636 427.35838741 -0.3119744 436.9921875 8.90625 C444.25178106 16.45835465 448.11549731 25.15927364 448.13422108 35.65366936 C448.13867892 36.81297049 448.14313676 37.97227163 448.14772969 39.1667031 C448.14745315 41.07843022 448.14745315 41.07843022 448.14717102 43.02877808 C448.15047091 44.39581218 448.15419675 45.76284532 448.1583125 47.12987721 C448.16832686 50.89053678 448.1720484 54.65118039 448.17470181 58.41185141 C448.17860668 62.4666267 448.18818508 66.52138938 448.19691467 70.57615662 C448.21667668 80.37219379 448.22674618 90.16823199 448.23564246 99.96428412 C448.24002688 104.57984941 448.2453934 109.19541355 448.25063133 113.81097794 C448.26764539 129.15950978 448.28213794 144.50804091 448.28938007 159.85658073 C448.29128991 163.83960852 448.29321025 167.8226363 448.29516602 171.80566406 C448.29564976 172.79560443 448.2961335 173.7855448 448.2966319 174.80548336 C448.30492607 190.8295593 448.33025183 206.85356045 448.36274669 222.87760375 C448.39585266 239.33756012 448.41383214 255.79747852 448.41702431 272.25746834 C448.41918643 281.49562538 448.42789097 290.73367342 448.45348549 299.97179794 C448.47524107 307.84242622 448.48321919 315.71291904 448.47351871 323.58357398 C448.46898767 327.59547 448.47078985 331.60708682 448.49028015 335.61894417 C448.50801163 339.30078349 448.50683438 342.98214203 448.49138286 346.66398717 C448.48791389 348.60796768 448.50395842 350.55195383 448.52098733 352.49586284 C448.42445613 365.83084111 445.52502558 378.22181759 436 388 C428.11114367 394.12104539 421.38014515 397.30586228 411.36625671 397.26501465 C410.49783246 397.26939592 409.62940821 397.27377719 408.73466808 397.27829123 C405.82525689 397.29061098 402.91602604 397.28880311 400.0065918 397.28710938 C397.92033623 397.29313367 395.83408309 397.30005794 393.74783325 397.30781555 C389.25492833 397.32270744 384.76206787 397.33145453 380.26914024 397.33552551 C373.16325308 397.34223768 366.05746102 397.36399113 358.95161438 397.38806152 C343.86359854 397.43704517 328.77556254 397.4693484 313.6875 397.5 C297.40942709 397.53308565 281.13139136 397.56903421 264.85337573 397.62413073 C257.7914544 397.64746409 250.72959903 397.66121669 243.66764295 397.66762543 C239.2707024 397.67356964 234.8738152 397.68767122 230.47690201 397.70396996 C228.44038016 397.7098392 226.40384525 397.71231957 224.36731529 397.71113014 C221.58299518 397.70996773 218.79897367 397.72101373 216.01469421 397.73498535 C214.81160623 397.73003689 214.81160623 397.73003689 213.58421344 397.72498846 C199.94210137 397.83762494 191.85583632 403.82150359 182.53292847 413.26434326 C180.95451751 414.87984723 179.3826031 416.5014229 177.8125 418.125 C176.22650124 419.75914731 174.63817226 421.39075732 173.04338074 423.0163269 C171.6036189 424.48456191 170.17226657 425.96102969 168.74145508 427.43798828 C165.9910733 430.0083424 163.16622593 431.97718736 160 434 C158.66909049 435.20813188 157.37084297 436.45432331 156.125 437.75 C155.52945312 438.36359375 154.93390625 438.9771875 154.3203125 439.609375 C153.88460938 440.06828125 153.44890625 440.5271875 153 441 C154.1055189 440.06409496 155.20935453 439.12620142 156.3125 438.1875 C156.92738281 437.66542969 157.54226563 437.14335938 158.17578125 436.60546875 C159.99736486 435.08366461 159.99736486 435.08366461 161.32275391 433.42236328 C163.53959397 431.54240546 164.77466872 431.62646786 167.66015625 431.63671875 C168.654104 431.63575195 169.64805176 431.63478516 170.67211914 431.63378906 C171.79094482 431.65151367 172.90977051 431.66923828 174.0625 431.6875 C175.27220459 431.6987793 176.48190918 431.71005859 177.72827148 431.72167969 C182.15322934 431.7755005 186.57631377 431.88292928 191 432 C191.87124512 432.02298157 192.74249023 432.04596313 193.64013672 432.06964111 C235.19271442 433.20518354 276.60452513 435.92121722 317.875 440.9375 C318.84753723 441.05275024 319.82007446 441.16800049 320.82208252 441.28674316 C331.0944802 442.51919413 341.22765371 444.08201464 351.3203125 446.37890625 C352.16133514 446.56347885 353.00235779 446.74805145 353.86886597 446.93821716 C360.53376967 448.5451892 367.07862733 451.07862733 372 456 C371.9375 457.875 371.9375 457.875 371 460 C330.17822934 497.76758709 198.63194196 483.35466342 148.49121094 483.26074219 C142.337733 483.24931076 136.1844275 483.25616468 130.03095531 483.26762486 C-57.51669045 483.56328181 -57.51669045 483.56328181 -83.703125 460.5 C-85 459 -85 459 -85 457.0625 C-83.08978383 453.12267914 -79.72313468 451.302258 -75.78515625 449.65625 C-64.3501452 446.10455717 -52.81255975 443.90176969 -41 442 C-40.03618408 441.83935059 -39.07236816 441.67870117 -38.0793457 441.51318359 C-28.60954443 439.98269561 -19.10303289 438.96455931 -9.5625 438 C-8.70364197 437.91284729 -7.84478394 437.82569458 -6.9598999 437.73590088 C35.477352 433.45583085 78.34228132 431.34535434 121 432 C120.00226563 431.16597656 119.00453125 430.33195312 117.9765625 429.47265625 C113.90888971 425.98534845 110.13686791 422.24906738 106.375 418.4375 C105.73304688 417.79103516 105.09109375 417.14457031 104.4296875 416.47851562 C103.18617102 415.22608049 101.94485204 413.97145853 100.70605469 412.71435547 C99.6251488 411.62819045 98.53322874 410.55278619 97.42675781 409.49267578 C96.25031562 408.36300979 95.11956815 407.18605591 94 406 C94 405.34 94 404.68 94 404 C92.66934347 403.32800638 91.33534771 402.6626226 90 402 C88.9737352 401.47886674 88.9737352 401.47886674 87.92673779 400.94720554 C78.40698119 396.80103234 68.59327205 397.44859349 58.41723633 397.50170898 C56.33994661 397.49788123 54.26265954 397.4922583 52.18537903 397.48498535 C47.73016067 397.47307516 43.27517816 397.47349271 38.81995583 397.48357964 C31.77235618 397.49919055 24.72499703 397.48542853 17.67741394 397.46754456 C3.99364463 397.43678131 -9.69005046 397.43522177 -23.37384796 397.43719482 C-40.8024913 397.4385895 -58.23107785 397.42823428 -75.65967923 397.3886171 C-82.66312386 397.37369531 -89.66635422 397.37394432 -96.66980207 397.38609493 C-101.0263197 397.39080826 -105.38275541 397.38328272 -109.73925972 397.37255096 C-111.75644363 397.37014673 -113.7736413 397.37287341 -115.79080963 397.38115883 C-118.54863707 397.39180786 -121.30583685 397.38400745 -124.06364441 397.37181091 C-124.8577194 397.37938697 -125.65179439 397.38696302 -126.46993226 397.39476866 C-136.28165384 397.3030362 -144.61362438 392.98030739 -151.76171875 386.37109375 C-157.58758943 380.04628201 -161.12710727 371.97583424 -161.12304783 363.3535881 C-161.12503888 362.41904069 -161.12702993 361.48449327 -161.12908131 360.52162623 C-161.12616847 359.49828535 -161.12325563 358.47494447 -161.12025452 357.42059326 C-161.12110894 356.33095063 -161.12196337 355.24130801 -161.12284368 354.11864591 C-161.12449525 350.45505729 -161.11898234 346.79151411 -161.11352539 343.12792969 C-161.11324342 340.50668336 -161.11340144 337.88543695 -161.1139679 335.26419067 C-161.11449241 329.61444373 -161.11135319 323.96470833 -161.10573006 318.31496429 C-161.09760523 310.14636972 -161.09499883 301.97778073 -161.09374207 293.80918255 C-161.0915531 280.55637896 -161.0848972 267.30358151 -161.07543945 254.05078125 C-161.06626134 241.1764326 -161.05918245 228.30208563 -161.05493164 215.42773438 C-161.05466892 214.63424445 -161.05440619 213.84075452 -161.05413551 213.02321944 C-161.05283048 209.04253903 -161.05156677 205.06185861 -161.05032361 201.08117819 C-161.03995582 168.05411431 -161.0223417 135.02705798 -161 102 C-160.2643151 101.99761165 -159.5286302 101.99522329 -158.77065182 101.99276257 C-140.85929964 101.93359381 -122.94808504 101.85803171 -105.03687954 101.76428509 C-96.3751033 101.71934385 -87.71336803 101.67992533 -79.05151367 101.65356445 C-71.50071985 101.63057083 -63.95005585 101.59715757 -56.39936501 101.55129844 C-52.40233159 101.52738457 -48.40542658 101.50864379 -44.40832329 101.50238609 C-40.64325266 101.49632688 -36.87851052 101.47629713 -33.11356163 101.44572449 C-31.73456353 101.43695761 -30.35552248 101.43321889 -28.97649765 101.43499184 C-20.3311777 101.44259485 -14.72769866 100.85860849 -7.3125 96.375 C0.93793376 87.90158155 -0.39561017 76.53417793 -0.390625 65.52734375 C-0.37562832 63.63447159 -0.35889806 61.74161244 -0.34051514 59.84877014 C-0.29699644 54.89225634 -0.27687696 49.93591902 -0.26177979 44.97924805 C-0.2421527 39.9111901 -0.20018909 34.84332119 -0.16015625 29.77539062 C-0.08502195 19.85031895 -0.03462906 9.92528993 0 0 Z " fill="#262A32" transform="translate(368,237)"/>
<path d="M0 0 C1.22379686 -0.00827125 1.22379686 -0.00827125 2.47231689 -0.0167096 C5.19988034 -0.03028006 7.9265286 -0.01542098 10.65407467 -0.00063419 C12.63177371 -0.00452793 14.60946994 -0.01016896 16.58715957 -0.01740509 C22.017024 -0.03216704 27.44659864 -0.02197397 32.87645376 -0.00766838 C38.73404869 0.00343315 44.59160269 -0.00849846 50.44919491 -0.01751041 C61.92207568 -0.03145016 73.39484645 -0.02388134 84.86772198 -0.00883483 C94.19051367 0.00292701 103.51327901 0.00664184 112.8360796 0.00424671 C113.49857391 0.0040863 114.16106823 0.00392588 114.84363813 0.0037606 C117.5329367 0.00309701 120.22223526 0.0023946 122.91153381 0.00163526 C148.13587321 -0.00538783 173.36015391 0.01009964 198.58447837 0.03625872 C220.99465337 0.05937623 243.40476385 0.06476087 265.81494808 0.05452633 C271.55412989 0.05192431 277.2933117 0.0493393 283.03249359 0.04692841 C284.0923371 0.04648223 284.0923371 0.04648223 285.17359159 0.04602705 C303.90053285 0.03841256 322.62746882 0.04482392 341.35440773 0.05562443 C343.36937487 0.05677223 345.38434202 0.05791541 347.39930917 0.05905125 C348.73597892 0.0598065 350.07264867 0.06057214 351.40931841 0.06134826 C361.38955851 0.06700686 371.36977545 0.06567535 381.35001469 0.06112003 C392.69716247 0.05619726 404.04424349 0.06216047 415.39137597 0.08201433 C421.18256787 0.09189689 426.97365802 0.09698097 432.76485538 0.08912182 C438.06397442 0.08207749 443.3628879 0.08884052 448.66197979 0.10672545 C450.58109489 0.11077801 452.50022866 0.10975659 454.41933686 0.10320658 C457.02471837 0.09507392 459.62940434 0.10534723 462.23474121 0.12025452 C463.3564496 0.11014804 463.3564496 0.11014804 464.50081876 0.09983739 C472.3882489 0.18731559 477.90976625 2.98132488 483.55445004 8.50057125 C486.99335104 13.374173 488.67099011 17.86929481 488.69489193 23.80007076 C488.70345715 25.0783424 488.70345715 25.0783424 488.7121954 26.38243771 C488.71331326 27.30926357 488.71443111 28.23608944 488.71558285 29.19100094 C488.72054775 30.1735989 488.72551266 31.15619686 488.73062801 32.16857052 C488.74523483 35.41986956 488.75204951 38.67111979 488.75757504 41.92244625 C488.76332808 44.1844295 488.7690858 46.44641273 488.77484798 48.70839596 C488.78535402 53.45292545 488.79119917 58.19743801 488.79468441 62.9419775 C488.80016562 69.01252442 488.82418757 75.08284666 488.85265636 81.15332317 C488.87130879 85.82713626 488.87648976 90.50089554 488.87802029 95.1747427 C488.88104188 97.41217685 488.88905372 99.64961017 488.90220547 101.88700771 C488.91931867 105.02236522 488.91737256 108.15717778 488.91089535 111.29256344 C488.92011013 112.21129238 488.92932491 113.13002132 488.93881893 114.07659054 C488.88239264 122.82511415 486.53038378 129.26076664 480.52320004 135.7388525 C474.08341784 141.50143538 467.10279103 142.65065795 458.72437954 142.64037895 C457.52748064 142.64480609 457.52748064 142.64480609 456.30640197 142.64932266 C453.61600337 142.6580275 450.9256477 142.65959556 448.23523617 142.66120052 C446.29342945 142.66593056 444.35162371 142.67108135 442.40981913 142.67661816 C437.0604833 142.69053914 431.7111543 142.69811206 426.36180496 142.70459116 C421.77677869 142.71095828 417.19176364 142.72102893 412.60674435 142.73115181 C397.49935101 142.76449002 382.39195086 142.78599978 367.28453279 142.80435166 C363.35123218 142.80914607 359.41793185 142.81412946 355.48463154 142.81915689 C331.06449172 142.85012723 306.64435028 142.87681969 282.22419643 142.89357567 C276.56670279 142.89751283 270.9092092 142.90152469 265.25171566 142.90560055 C264.19741801 142.90635305 264.19741801 142.90635305 263.12182143 142.90712075 C240.33952348 142.92353439 217.55733301 142.96198519 194.77508793 143.01288765 C170.68485223 143.06661434 146.59468122 143.09829705 122.50438547 143.10577255 C109.3739872 143.11043595 96.24376681 143.12519945 83.11342525 143.16551685 C71.93098748 143.19981123 60.74875967 143.21375844 49.56627232 143.20109271 C43.86143693 143.19526459 38.15704566 143.19914138 32.45227718 143.22926235 C27.22596702 143.25663168 22.00041639 143.25612042 16.77408928 143.2337519 C14.88705177 143.23053041 12.99996334 143.23738882 11.11301047 143.25554913 C0.4325146 143.3520784 -8.42437006 143.05186492 -17.44554996 136.50057125 C-23.8661802 130.05373397 -26.75925789 122.41242126 -26.85213566 113.39708614 C-26.84606297 112.52518642 -26.83999027 111.65328671 -26.83373356 110.75496578 C-26.841619 109.34353298 -26.841619 109.34353298 -26.84966373 107.90358639 C-26.86279627 104.81334666 -26.85414804 101.72362814 -26.84398746 98.63338375 C-26.84601047 96.47158873 -26.8489238 94.30979437 -26.85268497 92.14800167 C-26.8570995 87.62401977 -26.85070652 83.10021598 -26.83666325 78.57625484 C-26.8195926 72.79743442 -26.82940488 67.0190327 -26.84738064 61.2402277 C-26.8582595 56.77734421 -26.85475298 52.31455874 -26.84699726 47.85167217 C-26.84500552 45.72196432 -26.84741819 43.59224738 -26.85443592 41.46255016 C-26.86211575 38.47645158 -26.85035421 35.49101547 -26.83373356 32.50496578 C-26.8428426 31.2031889 -26.8428426 31.2031889 -26.85213566 29.87511349 C-26.77443661 22.28132634 -25.57783792 13.91289402 -20.25804996 8.12557125 C-19.72824528 7.51971188 -19.19844059 6.9138525 -18.65258121 6.28963375 C-12.85780371 1.59227429 -7.37037769 -0.09541424 0 0 Z " fill="#325081" transform="translate(279.4455499649048,459.4994287490845)"/>
<path d="M0 0 C23.26124618 -1.23351029 23.26124618 -1.23351029 29.40829468 4.23348999 C31.39608751 6.44869084 32.96710651 8.90802758 34.59725952 11.39242554 C38.87110196 14.33069221 43.61589599 13.84950244 48.59725952 13.39242554 C52.86975707 12.32430115 54.74914098 11.62587194 57.26522827 7.96664429 C60.27179322 3.85515218 62.93278479 0.94277457 67.98251343 -0.10025024 C74.93683632 -0.68651945 81.9100287 -0.22551731 88.86630249 0.15414429 C94.16091385 0.43663611 99.45775096 0.58328578 104.75741577 0.73617554 C143.46074157 1.91604961 182.03127956 4.65755803 220.47225952 9.32992554 C221.44479675 9.44517578 222.41733398 9.56042603 223.41934204 9.6791687 C233.69173972 10.91161967 243.82491323 12.47444017 253.91757202 14.77133179 C254.75859467 14.95590439 255.59961731 15.14047699 256.46612549 15.3306427 C263.13102919 16.93761474 269.67588685 19.47105287 274.59725952 24.39242554 C274.53475952 26.26742554 274.53475952 26.26742554 273.59725952 28.39242554 C232.77548886 66.16001263 101.22920148 51.74708896 51.08847046 51.65316772 C44.93499253 51.64173629 38.78168702 51.64859022 32.62821484 51.66005039 C-154.91943093 51.95570734 -154.91943093 51.95570734 -181.10586548 28.89242554 C-182.40274048 27.39242554 -182.40274048 27.39242554 -182.40274048 25.45492554 C-180.4925243 21.51510468 -177.12587516 19.69468353 -173.18789673 18.04867554 C-161.75288568 14.4969827 -150.21530023 12.29419523 -138.40274048 10.39242554 C-137.43892456 10.23177612 -136.47510864 10.07112671 -135.48208618 9.90560913 C-126.01228491 8.37512115 -116.50577337 7.35698485 -106.96524048 6.39242554 C-106.10638245 6.30527283 -105.24752441 6.21812012 -104.36264038 6.12832642 C-75.025557 3.16949271 -45.64118524 1.68932331 -16.17712402 0.70716858 C-10.78068953 0.52482611 -5.39131163 0.29668782 0 0 Z " fill="#CCB581" transform="translate(465.4027404785156,668.6075744628906)"/>
<path d="M0 0 C7.59 0 15.18 0 23 0 C23 38.61 23 77.22 23 117 C16.07 117 9.14 117 2 117 C1.505 112.545 1.505 112.545 1 108 C0.67 107.34 0.34 106.68 0 106 C-0.38929688 106.44730469 -0.77859375 106.89460937 -1.1796875 107.35546875 C-7.4398093 114.12043908 -13.5363243 118.10607073 -22.95532227 118.54101562 C-33.31907829 118.64668247 -40.54115247 116.13892559 -48.1484375 109.046875 C-57.36802695 98.85475502 -59.5705557 87.6636027 -59.5 74.3125 C-59.49427979 73.06750732 -59.48855957 71.82251465 -59.48266602 70.53979492 C-59.22980852 57.54189814 -56.65210651 46.38238697 -47 37 C-38.03327047 29.75463216 -29.22385811 28.01403262 -17.92529297 28.75732422 C-9.91938038 29.76643874 -6.01514293 33.98182848 -1 40 C-0.67 26.8 -0.34 13.6 0 0 Z " fill="#B3B4B4" transform="translate(457,755)"/>
<path d="M0 0 C4.41090963 2.61084195 6.83293095 5.4742757 9.3125 9.9375 C9.3125 10.9275 9.3125 11.9175 9.3125 12.9375 C9.9725 12.9375 10.6325 12.9375 11.3125 12.9375 C11.4775 12.256875 11.6425 11.57625 11.8125 10.875 C14.95920283 4.71270696 20.99650055 0.50337478 27.3125 -2.0625 C30.16717624 -2.40099916 32.71610046 -2.58699679 35.5625 -2.5625 C36.31104248 -2.55822998 37.05958496 -2.55395996 37.83081055 -2.54956055 C45.5330069 -2.31399137 51.2527043 -0.1222957 56.75 5.375 C60.97743676 12.30799629 62.4412671 17.56216964 62.42602539 25.65551758 C62.42617142 26.30973694 62.42631744 26.9639563 62.4264679 27.63800049 C62.42577494 29.78604526 62.41801164 31.93400175 62.41015625 34.08203125 C62.40828988 35.57704114 62.40686701 37.07205165 62.40586853 38.56706238 C62.40206064 42.49121811 62.39224518 46.4153365 62.38116455 50.33947754 C62.37091321 54.34805801 62.36636294 58.35664455 62.36132812 62.36523438 C62.35062129 70.22267525 62.33303856 78.08007867 62.3125 85.9375 C55.0525 85.9375 47.7925 85.9375 40.3125 85.9375 C40.29791748 84.18163574 40.28333496 82.42577148 40.26831055 80.61669922 C40.21656618 74.80111584 40.15125517 68.9857689 40.07678509 63.17043877 C40.0321471 59.6462014 39.99287703 56.12207788 39.96606445 52.59765625 C39.93496652 48.54137289 39.88018038 44.4857046 39.82421875 40.4296875 C39.81782883 39.17010223 39.8114389 37.91051697 39.80485535 36.61276245 C39.78506119 35.43199127 39.76526703 34.25122009 39.74487305 33.03466797 C39.73376999 31.99986298 39.72266693 30.96505798 39.71122742 29.89889526 C39.23764529 26.38154532 38.12698618 23.97452552 36.3125 20.9375 C32.76327485 18.31783382 30.05404685 17.71354097 25.75 18 C21.63665564 18.64400846 19.18364417 19.80534272 16.3125 22.9375 C14.49454812 26.66262794 14.04755917 29.70547356 13.99365234 33.8293457 C13.97378265 34.99017166 13.95391296 36.15099762 13.93344116 37.34700012 C13.92188995 38.58987289 13.91033875 39.83274567 13.8984375 41.11328125 C13.87907135 42.39357712 13.8597052 43.67387299 13.8397522 44.9929657 C13.78856052 48.3843778 13.74886593 51.77582945 13.71160889 55.16741943 C13.67148751 58.6331958 13.62043242 62.09880948 13.5703125 65.56445312 C13.47431842 72.35537282 13.3902649 79.14634808 13.3125 85.9375 C5.7225 85.9375 -1.8675 85.9375 -9.6875 85.9375 C-9.70208252 84.18163574 -9.71666504 82.42577148 -9.73168945 80.61669922 C-9.78343382 74.80111584 -9.84874483 68.9857689 -9.92321491 63.17043877 C-9.9678529 59.6462014 -10.00712297 56.12207788 -10.03393555 52.59765625 C-10.06503348 48.54137289 -10.11981962 44.4857046 -10.17578125 40.4296875 C-10.18217117 39.17010223 -10.1885611 37.91051697 -10.19514465 36.61276245 C-10.21493881 35.43199127 -10.23473297 34.25122009 -10.25512695 33.03466797 C-10.27178154 31.48246048 -10.27178154 31.48246048 -10.28877258 29.89889526 C-10.76361443 26.37218921 -11.85017003 23.97367591 -13.6875 20.9375 C-18.35290818 17.82722788 -23.22445405 18.33213545 -28.6875 18.9375 C-32.41579992 21.02534796 -34.10546183 23.03601984 -35.6875 26.9375 C-36.01357313 29.72476096 -36.01357313 29.72476096 -36.00634766 32.80761719 C-36.02621735 33.98853943 -36.04608704 35.16946167 -36.06655884 36.38616943 C-36.08388565 38.29103119 -36.08388565 38.29103119 -36.1015625 40.234375 C-36.12092865 41.53828186 -36.1402948 42.84218872 -36.1602478 44.18560791 C-36.21151083 47.64443936 -36.25116744 51.10330966 -36.28839111 54.56231689 C-36.32846753 58.09502732 -36.37954322 61.62757693 -36.4296875 65.16015625 C-36.52637764 72.08582646 -36.60978728 79.01159111 -36.6875 85.9375 C-44.2775 85.9375 -51.8675 85.9375 -59.6875 85.9375 C-60.0175 57.5575 -60.3475 29.1775 -60.6875 -0.0625 C-54.0875 -0.0625 -47.4875 -0.0625 -40.6875 -0.0625 C-39.42512269 2.46225462 -39.58893596 4.24950466 -39.625 7.0625 C-39.63402344 7.97257813 -39.64304687 8.88265625 -39.65234375 9.8203125 C-39.66394531 10.51898437 -39.67554688 11.21765625 -39.6875 11.9375 C-39.0275 11.9375 -38.3675 11.9375 -37.6875 11.9375 C-37.501875 11.23625 -37.31625 10.535 -37.125 9.8125 C-30.60953426 -3.21843148 -12.30247459 -5.59707177 0 0 Z " fill="#B3B3B3" transform="translate(320.6875,786.0625)"/>
<path d="M0 0 C8.45940056 6.51930195 14.0764841 15.30074452 16.31640625 25.78515625 C17.53948984 41.56209101 16.80791859 56.15152538 6.31640625 68.78515625 C-1.29500202 77.06569931 -11.13475619 81.52267299 -22.30859375 82.05859375 C-35.73686854 82.41996552 -46.40288893 81.54006382 -57.12109375 72.59765625 C-66.36936503 63.5295461 -70.96202566 52.65950719 -71.20288086 39.74291992 C-71.19651611 38.82873291 -71.19015137 37.9145459 -71.18359375 36.97265625 C-71.17787354 36.01141846 -71.17215332 35.05018066 -71.16625977 34.05981445 C-70.8711467 22.25827291 -67.21029853 12.24576254 -58.68359375 3.78515625 C-42.37025851 -9.86260134 -18.03548418 -11.78241101 0 0 Z " fill="#B4B4B4" transform="translate(698.68359375,791.21484375)"/>
<path d="M0 0 C1.10794922 -0.02449219 2.21589844 -0.04898438 3.35742188 -0.07421875 C16.09923814 -0.11890075 27.9064814 3.8280275 37.53515625 12.33984375 C45.49731152 20.56988461 48.06348896 29.13390067 49.3125 40.375 C41.7225 40.375 34.1325 40.375 26.3125 40.375 C24.6625 37.075 23.0125 33.775 21.3125 30.375 C14.9680434 23.79556352 9.60197944 22.32167446 0.5 21.9375 C-7.1869154 22.06820207 -12.72296679 23.9070856 -18.52734375 28.984375 C-26.66556535 37.65983861 -26.90464959 48.65436832 -27 59.9375 C-27.04350586 61.61295898 -27.04350586 61.61295898 -27.08789062 63.32226562 C-27.1611404 73.04194665 -25.4215676 83.06119209 -19.2421875 90.91015625 C-12.70727681 97.06742135 -5.31317334 98.69410021 3.36328125 98.58984375 C10.82156823 98.04652483 17.17667857 95.99994728 22.3125 90.375 C23.6325 87.405 24.9525 84.435 26.3125 81.375 C34.2325 81.375 42.1525 81.375 50.3125 81.375 C46.704132 94.60568267 42.56470107 105.77629612 30.4140625 113.12890625 C20.44848282 118.33761603 12.05604122 119.72066987 0.9375 119.6875 C-0.135 119.70361328 -1.2075 119.71972656 -2.3125 119.73632812 C-15.3994868 119.74428858 -28.16898886 115.41020067 -37.93359375 106.375 C-45.81512346 97.38759864 -50.1880761 88.02410069 -52.6875 76.375 C-52.86112061 75.58915527 -53.03474121 74.80331055 -53.21362305 73.99365234 C-56.33906007 56.72243261 -53.78040475 37.4456477 -44.6875 22.375 C-44.33171875 21.75496094 -43.9759375 21.13492188 -43.609375 20.49609375 C-37.40034566 10.72343137 -25.89095817 3.77474386 -14.86743164 0.77197266 C-9.96059439 -0.1215784 -4.97162595 0.00568511 0 0 Z " fill="#B4B5B5" transform="translate(195.6875,753.625)"/>
<path d="M0 0 C7.30145234 5.25395512 10.40072739 11.52646581 12.1875 20.25 C12.57121002 25.10209539 12.53820774 29.92437896 12.48046875 34.7890625 C12.47486007 36.16482069 12.470596 37.54058495 12.46760559 38.91635132 C12.45625667 42.50357165 12.4268781 46.09041635 12.39349365 49.67749023 C12.36257545 53.35134808 12.34905422 57.02526777 12.33398438 60.69921875 C12.30199636 67.88300201 12.24931281 75.06640011 12.1875 82.25 C5.9175 82.25 -0.3525 82.25 -6.8125 82.25 C-7.4725 78.62 -8.1325 74.99 -8.8125 71.25 C-9.286875 71.971875 -9.76125 72.69375 -10.25 73.4375 C-16.07130429 79.82673642 -24.12658652 82.83920636 -32.64453125 83.5859375 C-42.77428175 83.68534624 -51.00258964 83.07411867 -58.75 75.9375 C-63.2764785 71.34429208 -65.1705477 65.74296728 -65.33154297 59.35083008 C-65.32525879 58.67818115 -65.31897461 58.00553223 -65.3125 57.3125 C-65.30750488 56.60955811 -65.30250977 55.90661621 -65.29736328 55.18237305 C-65.03507 47.38683579 -62.36490711 43.80240711 -57.0625 38.5 C-46.17421777 30.96195845 -35.21008902 29.9385239 -22.25 30.125 C-21.05052734 30.13402344 -19.85105469 30.14304687 -18.61523438 30.15234375 C-15.68077691 30.17572588 -12.74674766 30.2084972 -9.8125 30.25 C-9.9336935 28.6451271 -10.06605093 27.04109459 -10.203125 25.4375 C-10.27563477 24.54417969 -10.34814453 23.65085937 -10.42285156 22.73046875 C-10.96740138 19.26391103 -12.21090736 17.56252679 -14.8125 15.25 C-19.34056157 12.45325609 -24.66367375 12.73592062 -29.8125 13.25 C-32.61967763 13.91912241 -34.26041607 14.73958298 -36.8125 16.25 C-37.13992188 17.1059375 -37.46734375 17.961875 -37.8046875 18.84375 C-39.8125 21.25 -39.8125 21.25 -42.1105957 21.65551758 C-45.0876085 21.74328237 -48.02422504 21.68422774 -51 21.5625 C-52.03576172 21.53994141 -53.07152344 21.51738281 -54.13867188 21.49414062 C-56.69806404 21.43516846 -59.25455951 21.35292567 -61.8125 21.25 C-59.73211942 12.01466566 -56.10567467 4.95070039 -48.03515625 -0.46484375 C-33.73011198 -8.73612594 -14.14461343 -8.6157743 0 0 Z " fill="#B3B4B4" transform="translate(792.8125,789.75)"/>
<path d="M0 0 C24.09 0 48.18 0 73 0 C73 6.93 73 13.86 73 21 C56.83 21 40.66 21 24 21 C24 30.57 24 40.14 24 50 C38.85 50 53.7 50 69 50 C69 56.27 69 62.54 69 69 C54.15 69 39.3 69 24 69 C24 84.84 24 100.68 24 117 C16.08 117 8.16 117 0 117 C0 78.39 0 39.78 0 0 Z " fill="#B4B4B4" transform="translate(500,755)"/>
<path d="M0 0 C15.84 0 31.68 0 48 0 C48 6.6 48 13.2 48 20 C43.38 20 38.76 20 34 20 C34 41.78 34 63.56 34 86 C38.62 86 43.24 86 48 86 C48 92.27 48 98.54 48 105 C32.16 105 16.32 105 0 105 C0 98.73 0 92.46 0 86 C3.96 86 7.92 86 12 86 C12 64.22 12 42.44 12 20 C8.04 20 4.08 20 0 20 C0 13.4 0 6.8 0 0 Z " fill="#C6C7C6" transform="translate(191,153)"/>
<path d="M0 0 C7.26 0 14.52 0 22 0 C22 7.26 22 14.52 22 22 C28.27 22 34.54 22 41 22 C41 27.94 41 33.88 41 40 C34.73 40 28.46 40 22 40 C22.01941586 46.31776819 22.07112134 52.63414264 22.15258789 58.95141602 C22.17576522 61.09977624 22.19016297 63.24825004 22.19555664 65.39672852 C22.20484791 68.48786173 22.24584351 71.57720912 22.29296875 74.66796875 C22.2890361 75.62648239 22.28510345 76.58499603 22.28105164 77.57255554 C22.38106721 82.15786347 22.51193363 84.34139944 25.30859375 88.11523438 C28.824242 90.57720866 31.69702864 90.56648594 35.8125 90.3125 C38.184375 90.209375 40.55625 90.10625 43 90 C43 95.94 43 101.88 43 108 C29.99679566 109.62540054 18.23839352 110.56430333 7 103 C0.98845819 96.82147092 -0.34173858 90.75894429 -0.33988953 82.4311676 C-0.31666374 80.81201698 -0.31666374 80.81201698 -0.29296875 79.16015625 C-0.28872391 78.03806259 -0.28447906 76.91596893 -0.28010559 75.75987244 C-0.26338097 72.19383233 -0.22573922 68.62836785 -0.1875 65.0625 C-0.17244517 62.63737798 -0.15875817 60.21224706 -0.14648438 57.78710938 C-0.11349764 51.85785284 -0.06175737 45.92902385 0 40 C-4.62 40 -9.24 40 -14 40 C-14 34.06 -14 28.12 -14 22 C-9.38 22 -4.76 22 0 22 C0 14.74 0 7.48 0 0 Z " fill="#B3B4B4" transform="translate(834,764)"/>
<path d="M0 0 C7.59 0 15.18 0 23 0 C23.04538771 9.31076564 23.08199435 18.62145645 23.10362434 27.9323082 C23.11401152 32.2568349 23.12807686 36.58128124 23.15087891 40.90576172 C23.17278964 45.08791125 23.1846066 49.26998403 23.18975449 53.45218658 C23.19341781 55.03878231 23.2005702 56.62537437 23.21146011 58.21193695 C23.39301173 85.78737138 23.39301173 85.78737138 14.5625 95.75 C13.716875 96.4925 12.87125 97.235 12 98 C11.278125 98.680625 10.55625 99.36125 9.8125 100.0625 C-0.12982488 106.91165714 -12.19727942 108.21847606 -24 107 C-28.46050647 105.96822628 -32.71913105 104.61705673 -37 103 C-37.29530838 96.50321562 -36.17293889 90.3778552 -35 84 C-34.01 84.33 -33.02 84.66 -32 85 C-27.63117639 86.09024503 -23.29477899 86.25947941 -18.8125 86.3125 C-18.12349609 86.32990234 -17.43449219 86.34730469 -16.72460938 86.36523438 C-12.28700255 86.36093853 -9.52360036 85.71144565 -6 83 C-1.12738649 76.90923311 -0.88920923 71.39079821 -0.79467773 63.80126953 C-0.78477814 63.10788986 -0.77487854 62.41451019 -0.76467896 61.70011902 C-0.73330674 59.42771723 -0.70840353 57.15529459 -0.68359375 54.8828125 C-0.6630032 53.29954512 -0.6420062 51.71628297 -0.62062073 50.13302612 C-0.56561691 45.98043071 -0.51611265 41.82778749 -0.46777344 37.67510986 C-0.41739932 33.43180116 -0.36179658 29.18856127 -0.30664062 24.9453125 C-0.19932462 16.63026513 -0.09830512 8.31515879 0 0 Z " fill="#C4C5C5" transform="translate(289,153)"/>
<path d="M0 0 C7.59 0 15.18 0 23 0 C23 38.61 23 77.22 23 117 C15.41 117 7.82 117 0 117 C0 78.39 0 39.78 0 0 Z " fill="#B1B1B2" transform="translate(589,755)"/>
<path d="M0 0 C5.61 0 11.22 0 17 0 C15.56055833 8.06087334 13.35669511 15.7027079 10.875 23.5 C10.47150149 24.78147282 10.06859886 26.06313339 9.66625977 27.3449707 C8.84424445 29.96313509 8.02019354 32.58064508 7.19482422 35.19775391 C5.41757984 40.8534147 3.67614859 46.51987837 1.9375 52.1875 C1.27870252 54.33074659 0.61984845 56.47397579 -0.0390625 58.6171875 C-0.69275489 60.74477736 -1.34640081 62.8723815 -2 65 C-7.63500056 83.34324709 -13.30485816 101.67535381 -19 120 C-24.61 120 -30.22 120 -36 120 C-33.00753986 107.39816404 -29.38542845 95.05566942 -25.56420898 82.68188477 C-24.56358504 79.44101427 -23.56937339 76.1982301 -22.57617188 72.95507812 C-19.51001506 62.96818917 -16.37432864 53.01665057 -13.03051758 43.11938477 C-11.57023344 38.69909327 -10.29862692 34.23716781 -9.0625 29.75 C-6.26230866 19.76055336 -3.18211926 9.87359701 0 0 Z " fill="#5F646B" transform="translate(473,310)"/>
<path d="M0 0 C4.27683984 3.70903669 7.66725252 8.19283931 8.17411804 13.9921875 C8.23106723 16.41002442 8.22471081 18.81994798 8.1953125 21.23828125 C8.1924826 22.11904831 8.18965271 22.99981537 8.18673706 23.90727234 C8.17557833 26.70915545 8.15048171 29.51071416 8.125 32.3125 C8.11496463 34.21679225 8.10583975 36.12108952 8.09765625 38.02539062 C8.07565309 42.68371797 8.04115294 47.34180406 8 52 C4.37 52 0.74 52 -3 52 C-3.66 50.02 -4.32 48.04 -5 46 C-5.47050781 46.42152344 -5.94101562 46.84304688 -6.42578125 47.27734375 C-7.04839844 47.82519531 -7.67101562 48.37304688 -8.3125 48.9375 C-8.92738281 49.48277344 -9.54226563 50.02804687 -10.17578125 50.58984375 C-15.31974234 54.56622481 -22.86541371 53.48709603 -29 53 C-33.94109057 50.9554108 -36.18337366 47.98493396 -38.30859375 43.21875 C-39.81553553 38.38291423 -39.79194257 33.93585962 -37.875 29.25 C-33.88749332 24.46499198 -30.04130902 21.52586205 -24 20 C-20.70272381 19.77278556 -17.42799077 19.81033301 -14.125 19.875 C-13.24585938 19.88402344 -12.36671875 19.89304687 -11.4609375 19.90234375 C-9.3071729 19.92575423 -7.15354986 19.9616199 -5 20 C-5.28488281 18.72125 -5.56976562 17.4425 -5.86328125 16.125 C-6.02352783 15.40570312 -6.18377441 14.68640625 -6.34887695 13.9453125 C-6.90446634 11.76225104 -6.90446634 11.76225104 -9.1875 10 C-12.78218173 8.72189094 -15.20945227 8.45849318 -19 9 C-19.70125 9.825 -20.4025 10.65 -21.125 11.5 C-25.76208915 15.53225144 -31.10439727 14.38843649 -37 14 C-35.6088706 8.03801685 -33.91106177 3.9026272 -28.9453125 0.15234375 C-20.60963214 -4.78545887 -8.42991806 -4.5937412 0 0 Z " fill="#B0AFAF" transform="translate(520,514)"/>
<path d="M0 0 C4.66025263 3.64672221 7.1002231 7.14171396 9.01953125 12.74609375 C9.01953125 17.69609375 9.01953125 22.64609375 9.01953125 27.74609375 C-2.86046875 27.74609375 -14.74046875 27.74609375 -26.98046875 27.74609375 C-25.28570897 34.49891884 -25.28570897 34.49891884 -20.98046875 38.74609375 C-18.53075251 39.97095187 -16.83812414 39.91332183 -14.10546875 39.93359375 C-13.24179687 39.94777344 -12.378125 39.96195313 -11.48828125 39.9765625 C-8.81971366 39.73132031 -7.22842236 39.18256635 -4.98046875 37.74609375 C-4.48546875 36.75609375 -4.48546875 36.75609375 -3.98046875 35.74609375 C-2.37667534 35.69193187 -0.77235469 35.65322737 0.83203125 35.62109375 C1.72535156 35.59789062 2.61867188 35.5746875 3.5390625 35.55078125 C6.01953125 35.74609375 6.01953125 35.74609375 9.01953125 37.74609375 C5.90026456 43.86465533 2.90890759 48.15217906 -3.6875 50.85546875 C-11.27516305 52.90764808 -21.07993116 53.33217067 -28.16796875 49.62109375 C-34.46827146 45.33688791 -37.89687169 40.11639338 -39.98046875 32.74609375 C-40.41767311 29.77410533 -40.50587568 26.87232753 -40.48046875 23.87109375 C-40.47188843 22.68918457 -40.47188843 22.68918457 -40.46313477 21.48339844 C-40.20796495 13.14269624 -37.78230038 7.10038036 -31.66796875 1.30859375 C-22.15001058 -5.94807846 -10.16705851 -6.43713172 0 0 Z " fill="#B0B0AF" transform="translate(463.98046875,515.25390625)"/>
<path d="M0 0 C4.29 0 8.58 0 13 0 C13.33 8.58 13.66 17.16 14 26 C16.64 23.69 19.28 21.38 22 19 C27.57413253 17.14195582 32.94275568 17.19368616 38.3125 19.6875 C42.64803761 22.14401733 45.1397294 24.96211111 47.08935547 29.58056641 C48.24410435 33.91660202 48.24991498 37.87158517 48.1953125 42.3359375 C48.1924826 43.21528961 48.18965271 44.09464172 48.18673706 45.00064087 C48.17559712 47.79223594 48.15050411 50.5835029 48.125 53.375 C48.1149622 55.27473493 48.10583775 57.17447492 48.09765625 59.07421875 C48.07567806 63.71627107 48.0411911 68.35808002 48 73 C43.71 73 39.42 73 35 73 C34.98541748 71.96593018 34.97083496 70.93186035 34.95581055 69.86645508 C34.89769118 66.01763918 34.82045977 62.16940001 34.73754883 58.32104492 C34.70436345 56.65772892 34.67631166 54.99430204 34.65356445 53.33081055 C34.61990001 50.93490501 34.5675806 48.54000965 34.51171875 46.14453125 C34.50532883 45.4047554 34.4989389 44.66497955 34.49235535 43.90278625 C34.36642196 39.44706376 33.76444213 36.53331661 31 33 C27.23124125 30.48749417 25.46849866 30.46983914 21 31 C17.52318705 33.01329926 15.29487954 35.11536139 14 39 C13.84677641 41.58330229 13.74293111 44.14492239 13.68359375 46.73046875 C13.66281265 47.48088943 13.64203156 48.23131012 13.62062073 49.00447083 C13.55530074 51.39872184 13.49632208 53.79308139 13.4375 56.1875 C13.39429807 57.81186013 13.35068324 59.43620933 13.30664062 61.06054688 C13.19963737 65.04025371 13.09832063 69.02006958 13 73 C8.71 73 4.42 73 0 73 C0 48.91 0 24.82 0 0 Z " fill="#B2B1B0" transform="translate(634,493)"/>
<path d="M0 0 C5.90070113 5.02356988 8.66037389 11.05027413 9.31640625 18.6796875 C9.72525946 28.38500065 8.80621549 37.06220694 2.6875 45 C-3.18350831 49.36912246 -8.01304023 50.6337062 -15.28125 50.4140625 C-21.09269752 49.52898572 -24.71022528 46.56130623 -28.375 42.125 C-33.23456389 32.77968482 -33.77645736 20.03916832 -30.9375 9.875 C-29.04284095 5.29401685 -25.98752665 1.90001938 -22 -1 C-14.57519474 -4.04947359 -7.00575696 -4.01549484 0 0 Z " fill="#16181D" transform="translate(683,805)"/>
<path d="M0 0 C6.23874538 2.78515419 9.68316418 7.92738308 12.3125 14.0625 C14.25642931 25.19591332 13.47140235 35.41630588 8.1875 45.4375 C4.79646774 49.40985207 2.16820158 50.77627474 -3.06640625 51.31640625 C-8.02068907 51.49113067 -11.91013454 51.4670852 -16.5 49.5 C-23.73718429 42.26281571 -25.18903999 35.64076168 -25.25 25.75 C-25.270625 24.92886719 -25.29125 24.10773437 -25.3125 23.26171875 C-25.36700483 14.66358184 -23.05929642 8.20708414 -17 2 C-11.93762237 -1.27763696 -5.77982925 -0.5693348 0 0 Z " fill="#17181E" transform="translate(446,803)"/>
<path d="M0 0 C3.98759497 3.59856131 4.58614247 6.72331647 5 12 C3.06372231 12.10807131 1.12572244 12.1856225 -0.8125 12.25 C-2.43091797 12.31960938 -2.43091797 12.31960938 -4.08203125 12.390625 C-7 12 -7 12 -8.5703125 10.0078125 C-9.27800781 9.01394531 -9.27800781 9.01394531 -10 8 C-12.43581396 7.4427373 -12.43581396 7.4427373 -15.0625 7.625 C-15.94035156 7.63789062 -16.81820313 7.65078125 -17.72265625 7.6640625 C-20.19506596 7.7975019 -20.19506596 7.7975019 -22 10 C-22.58350505 12.45709375 -22.58350505 12.45709375 -22 15 C-17.31827629 18.60978306 -11.89719575 19.28329046 -6.23828125 20.37304688 C-0.77732087 21.52806416 3.1000883 23.09560326 6.29296875 27.9765625 C7.96205509 32.75328474 7.5061 37.53793334 5.875 42.25 C2.83534387 46.70816232 -0.99735595 49.87240491 -6 52 C-9.07257526 52.45451225 -12.14702236 52.41598475 -15.25 52.4375 C-16.07113281 52.47037109 -16.89226562 52.50324219 -17.73828125 52.53710938 C-24.00768765 52.59175555 -28.16565895 51.01456145 -33 47 C-36.49130794 42.81043047 -37 41.60119751 -37 36 C-32.71 36 -28.42 36 -24 36 C-23.34 37.32 -22.68 38.64 -22 40 C-18.56928684 41.71535658 -14.75941181 41.4006478 -11 41 C-8.4810733 39.68236671 -8.4810733 39.68236671 -7 38 C-7.10169161 35.05272465 -7.10169161 35.05272465 -8 32 C-11.76942262 30.02157377 -15.71421124 29.4295225 -19.875 28.6875 C-25.84449423 27.44229104 -29.58245406 26.21674839 -34 22 C-36.66014734 17.83629112 -36.68716741 12.80168829 -36 8 C-33.17611004 2.45680859 -29.60479989 -0.97850985 -23.8125 -3.25 C-15.08775701 -4.96634288 -7.86964198 -4.4023957 0 0 Z " fill="#B0AFAF" transform="translate(409,515)"/>
<path d="M0 0 C24.09 0 48.18 0 73 0 C73 6.6 73 13.2 73 20 C48.91 20 24.82 20 0 20 C0 13.4 0 6.8 0 0 Z " fill="#724357" transform="translate(191,297)"/>
<path d="M0 0 C2.99018454 2.62225167 5.22364777 5.44729554 7 9 C7.039992 10.99960012 7.04346799 13.00047242 7 15 C2.94411488 15.34931068 -0.95669616 15.5433689 -5 15 C-6.7143618 13.04072937 -8.38405168 11.04119788 -10 9 C-13.45027359 8.21558854 -16.53878245 8.3089278 -20 9 C-23.09406772 11.1658474 -24.59025193 13.54078625 -26 17 C-26.87377057 25.25001976 -26.65357712 32.01963432 -22 39 C-18.53943303 40.73028348 -14.77514553 40.62586187 -11 40 C-10.2575 39.175 -9.515 38.35 -8.75 37.5 C-4.68573158 33.80521053 -0.97252582 34.61815937 4.33203125 34.82421875 C5.65267578 34.91123047 5.65267578 34.91123047 7 35 C6.2846669 40.035384 5.28845067 43.01924393 2 47 C-3.72198172 51.10574998 -8.90650812 52.19991121 -15.8125 52.25 C-16.51181641 52.270625 -17.21113281 52.29125 -17.93164062 52.3125 C-24.75824078 52.36358775 -29.50513374 49.95731819 -34.61328125 45.51953125 C-40.61847398 38.9391933 -41.32201799 30.64837814 -41.20703125 22.12890625 C-40.61933935 13.24699653 -37.66677284 6.93973794 -31 1 C-21.39160262 -6.05297255 -10.2419438 -5.38638813 0 0 Z " fill="#B0B0AF" transform="translate(616,515)"/>
<path d="M0 0 C0.18451025 9.41002278 0.18451025 9.41002278 -1 14 C-1.66386719 13.94199219 -2.32773437 13.88398437 -3.01171875 13.82421875 C-8.97900054 13.46329364 -8.97900054 13.46329364 -14.0625 16.375 C-17.13502815 20.53778007 -17.20167111 23.59794832 -17.31640625 28.6328125 C-17.33718735 29.38464813 -17.35796844 30.13648376 -17.37937927 30.91110229 C-17.44482705 33.31564085 -17.50373738 35.72028967 -17.5625 38.125 C-17.60568977 39.75391771 -17.64930421 41.38282422 -17.69335938 43.01171875 C-17.80050351 47.00769915 -17.90178433 51.00379059 -18 55 C-22.29 55 -26.58 55 -31 55 C-31 37.18 -31 19.36 -31 1 C-27.04 1 -23.08 1 -19 1 C-18.67 2.98 -18.34 4.96 -18 7 C-17.54109375 6.57847656 -17.0821875 6.15695312 -16.609375 5.72265625 C-15.99578125 5.17480469 -15.3821875 4.62695312 -14.75 4.0625 C-14.14671875 3.51722656 -13.5434375 2.97195313 -12.921875 2.41015625 C-8.923834 -0.5233657 -4.82340598 -0.09275781 0 0 Z " fill="#B2B1AF" transform="translate(571,511)"/>
<path d="M0 0 C12.21 0 24.42 0 37 0 C37 5.61 37 11.22 37 17 C24.79 17 12.58 17 0 17 C0 11.39 0 5.78 0 0 Z " fill="#5E636A" transform="translate(490,398)"/>
<path d="M0 0 C15.51 0 31.02 0 47 0 C47 6.6 47 13.2 47 20 C43.10412022 20.02699224 39.20842786 20.04683573 35.3125 20.0625 C34.20970703 20.07087891 33.10691406 20.07925781 31.97070312 20.08789062 C30.3706543 20.09272461 30.3706543 20.09272461 28.73828125 20.09765625 C27.75899658 20.10289307 26.77971191 20.10812988 25.77075195 20.11352539 C23.07530428 20.00308543 20.62454361 19.60534166 18 19 C17.855625 18.401875 17.71125 17.80375 17.5625 17.1875 C17.1127561 15.43849596 16.57107659 13.71322977 16 12 C19 7.5 19 7.5 22 3 C20.01508358 3.26676204 20.01508358 3.26676204 18 4 C17.67 4.99 17.34 5.98 17 7 C15.68 6.67 14.36 6.34 13 6 C13 5.01 13 4.02 13 3 C11.783125 3.04125 10.56625 3.0825 9.3125 3.125 C5.78105873 3.13754508 3.19996434 2.59998217 0 1 C0 0.67 0 0.34 0 0 Z " fill="#2D4C7D" transform="translate(217,297)"/>
<path d="M0 0 C0.9178125 0.01353516 1.835625 0.02707031 2.78125 0.04101562 C5.02146803 0.07601903 7.26040594 0.12511131 9.5 0.1875 C9.53221074 1.78372089 9.55516243 3.38013038 9.57421875 4.9765625 C9.59488403 6.31001709 9.59488403 6.31001709 9.6159668 7.67041016 C9.39261527 12.51831387 7.47868843 15.2822132 4 18.5 C-0.43067601 21.49070631 -4.69444406 21.49811138 -9.875 21.625 C-10.63039063 21.67076172 -11.38578125 21.71652344 -12.1640625 21.76367188 C-17.61304647 21.87322313 -17.61304647 21.87322313 -20.13134766 19.92626953 C-22.29574999 17.42983259 -23.44999832 15.42750806 -24.125 12.1875 C-23.29493012 8.20316457 -21.59176512 5.72770482 -18.5 3.1875 C-12.16995753 0.20453751 -6.93175584 -0.19646692 0 0 Z " fill="#15161C" transform="translate(773.5,833.8125)"/>
<path d="M0 0 C7.59 0 15.18 0 23 0 C23 38.61 23 77.22 23 117 C15.41 117 7.82 117 0 117 C0 78.39 0 39.78 0 0 Z M2 2 C2 39.29 2 76.58 2 115 C8.6 115 15.2 115 22 115 C22 77.71 22 40.42 22 2 C15.4 2 8.8 2 2 2 Z " fill="#C3C4C4" transform="translate(589,755)"/>
<path d="M0 0 C12.21 0 24.42 0 37 0 C37 0.33 37 0.66 37 1 C32.545 1.495 32.545 1.495 28 2 C28 3.32 28 4.64 28 6 C30.31 6 32.62 6 35 6 C35 6.33 35 6.66 35 7 C31.04 7 27.08 7 23 7 C22.67 7.99 22.34 8.98 22 10 C17.69628588 12.86594771 12.97402296 12.51678161 8 12 C3.78345689 10.29544002 1.90382184 8.10824713 0 4 C0 2.68 0 1.36 0 0 Z " fill="#2B4A7E" transform="translate(437,544)"/>
<path d="M0 0 C0.33 0 0.66 0 1 0 C1 6.6 1 13.2 1 20 C4.96 20 8.92 20 13 20 C13 41.78 13 63.56 13 86 C9.04 86 5.08 86 1 86 C1 92.27 1 98.54 1 105 C0.67 105 0.34 105 0 105 C-0.02887814 101.52085059 -0.04675687 98.04173169 -0.0625 94.5625 C-0.07087891 93.56927734 -0.07925781 92.57605469 -0.08789062 91.55273438 C-0.09111328 90.60849609 -0.09433594 89.66425781 -0.09765625 88.69140625 C-0.10289307 87.81685791 -0.10812988 86.94230957 -0.11352539 86.04125977 C0 84 0 84 1 83 C2.51928038 82.92820036 4.04167482 82.91607993 5.5625 82.9375 C6.80193359 82.95103516 6.80193359 82.95103516 8.06640625 82.96484375 C9.02353516 82.98224609 9.02353516 82.98224609 10 83 C9.99476318 81.90349121 9.98952637 80.80698242 9.98413086 79.67724609 C9.80902313 39.54521119 9.80902313 39.54521119 11 21 C7.37 21 3.74 21 0 21 C0 14.07 0 7.14 0 0 Z " fill="#1A1A1A" transform="translate(190,153)"/>
<path d="M0 0 C2.875 1.375 2.875 1.375 5 4 C5.59076562 7.40526219 5.67981537 10.6065883 5 14 C2.8467059 16.92325987 1.85441251 17.03522278 -1.875 17.9375 C-5.01384672 18.20340598 -5.98593598 18.00688239 -8.9375 16.5625 C-11.66161593 13.17799233 -12.46409059 10.3315122 -12 6 C-8.74238589 0.72041851 -6.13812058 -0.60177653 0 0 Z " fill="#ADAEAE" transform="translate(352,549)"/>
<path d="M0 0 C7.27506259 0.46935888 7.27506259 0.46935888 9.734375 2.26953125 C12.08984387 5.49012603 11.48194819 9.19260931 11 13 C10 15.5 10 15.5 8 17 C5.28110609 17.89452787 2.85632689 18.25055499 0 18 C-2.85993478 16.23535939 -4.49782849 15.00434303 -6 12 C-6.375 9.1875 -6.375 9.1875 -6 6 C-3.5625 3.1875 -3.5625 3.1875 -1 1 C-0.67 0.67 -0.34 0.34 0 0 Z " fill="#B0B0AE" transform="translate(346,515)"/>
<path d="M0 0 C0.20153374 5.34437617 -0.49362791 7.83026021 -4 12 C-8.1794413 14.55410302 -12.24325941 14.45302291 -17 14 C-19.87379995 12.06018504 -20.76793708 10.90504537 -21.625 7.5625 C-20.89482016 4.56876267 -19.77476248 2.83938319 -17.33203125 0.9375 C-12.01908696 -1.198357 -5.63416589 -0.32256675 0 0 Z " fill="#2F4D7F" transform="translate(515,543)"/>
<path d="M0 0 C4.69489508 0.08223542 7.35960385 0.94382083 10.8125 4.3125 C11.4725 6.9525 12.1325 9.5925 12.8125 12.3125 C4.8925 12.3125 -3.0275 12.3125 -11.1875 12.3125 C-10.14825082 6.07700491 -9.63809307 5.20676894 -5.1875 1.3125 C-3.63719882 -0.23780118 -2.15073999 0.06844901 0 0 Z " fill="#2D4B7F" transform="translate(448.1875,521.6875)"/>
<path d="M0 0 C0.33 0 0.66 0 1 0 C1 21.12 1 42.24 1 64 C-6.26 64 -13.52 64 -21 64 C-21 44.53 -21 25.06 -21 5 C-19 7 -19 7 -18.75949097 9.32852173 C-18.76393219 10.3011496 -18.76837341 11.27377747 -18.77294922 12.27587891 C-18.77310028 13.3768692 -18.77325134 14.4778595 -18.77340698 15.61221313 C-18.78372955 16.80494843 -18.79405212 17.99768372 -18.8046875 19.2265625 C-18.8075174 20.44451508 -18.81034729 21.66246765 -18.81326294 22.91732788 C-18.82448744 26.81998383 -18.84959628 30.72241303 -18.875 34.625 C-18.88502686 37.26562169 -18.89415322 39.90624697 -18.90234375 42.546875 C-18.92443422 49.03133781 -18.95897966 55.51563042 -19 62 C-12.73 62 -6.46 62 0 62 C0 41.54 0 21.08 0 0 Z " fill="#C3C4C3" transform="translate(382,808)"/>
<path d="M0 0 C6.96003447 -0.02526838 13.9200572 -0.04283222 20.88012695 -0.05493164 C23.24992312 -0.05997341 25.61971615 -0.06680665 27.98950195 -0.07543945 C31.38754039 -0.0875119 34.78553785 -0.09322971 38.18359375 -0.09765625 C39.25024765 -0.10281754 40.31690155 -0.10797882 41.4158783 -0.11329651 C42.88729027 -0.11340981 42.88729027 -0.11340981 44.38842773 -0.11352539 C45.25668686 -0.115746 46.12494598 -0.11796661 47.01951599 -0.12025452 C49 0 49 0 50 1 C50.25208722 4.80588144 50.18522344 8.62425456 50.1875 12.4375 C50.19974609 13.51322266 50.21199219 14.58894531 50.22460938 15.69726562 C50.22654297 16.72400391 50.22847656 17.75074219 50.23046875 18.80859375 C50.23457764 19.75532959 50.23868652 20.70206543 50.24291992 21.67749023 C50 24 50 24 48 26 C45.6171875 26.1953125 45.6171875 26.1953125 42.875 26.125 C41.96492188 26.10695312 41.05484375 26.08890625 40.1171875 26.0703125 C39.41851562 26.04710937 38.71984375 26.02390625 38 26 C38 28.97 38 31.94 38 35 C37.67 35 37.34 35 37 35 C37.02320313 34.30132812 37.04640625 33.60265625 37.0703125 32.8828125 C37.08835938 31.97273438 37.10640625 31.06265625 37.125 30.125 C37.14820313 29.22007812 37.17140625 28.31515625 37.1953125 27.3828125 C37.24324836 24.81193006 37.24324836 24.81193006 35 23 C39.62 23 44.24 23 49 23 C49 16.4 49 9.8 49 3 C33.16 3 17.32 3 1 3 C0.67 2.01 0.34 1.02 0 0 Z " fill="#1B1B1B" transform="translate(190,150)"/>
<path d="M0 0 C10.23 0 20.46 0 31 0 C31 0.66 31 1.32 31 2 C30.01 2 29.02 2 28 2 C25.82473389 5.8067157 25.94716465 8.70553381 26.125 13.0625 C26 16 26 16 24 19 C20.875 19.1875 20.875 19.1875 18 19 C17.855625 18.401875 17.71125 17.80375 17.5625 17.1875 C17.1127561 15.43849596 16.57107659 13.71322977 16 12 C19 7.5 19 7.5 22 3 C20.01508358 3.26676204 20.01508358 3.26676204 18 4 C17.67 4.99 17.34 5.98 17 7 C15.68 6.67 14.36 6.34 13 6 C13 5.01 13 4.02 13 3 C11.783125 3.04125 10.56625 3.0825 9.3125 3.125 C5.78105873 3.13754508 3.19996434 2.59998217 0 1 C0 0.67 0 0.34 0 0 Z " fill="#414F76" transform="translate(217,297)"/>
<path d="M0 0 C7.26 0 14.52 0 22 0 C22 7.26 22 14.52 22 22 C21.67 22 21.34 22 21 22 C21 15.4 21 8.8 21 2 C14.73 2 8.46 2 2 2 C2.02320313 3.42054688 2.04640625 4.84109375 2.0703125 6.3046875 C2.08906771 8.16145309 2.10726817 10.01822435 2.125 11.875 C2.14175781 12.81214844 2.15851562 13.74929688 2.17578125 14.71484375 C2.18222656 15.61074219 2.18867187 16.50664063 2.1953125 17.4296875 C2.20578613 18.25710449 2.21625977 19.08452148 2.22705078 19.93701172 C2 22 2 22 0 24 C-4.01194366 24.27783543 -7.97447362 24.0856495 -12 24 C-12 28.62 -12 33.24 -12 38 C-8.04 38 -4.08 38 0 38 C0 38.33 0 38.66 0 39 C-4.62 39 -9.24 39 -14 39 C-14 33.39 -14 27.78 -14 22 C-9.38 22 -4.76 22 0 22 C0 14.74 0 7.48 0 0 Z " fill="#CFD0CF" transform="translate(834,764)"/>
<path d="M0 0 C0.66 0 1.32 0 2 0 C2 7.26 2 14.52 2 22 C-2.62 22 -7.24 22 -12 22 C-12 27.94 -12 33.88 -12 40 C-12.66 39.67 -13.32 39.34 -14 39 C-14.05380578 36.20807795 -14.09357669 33.4171859 -14.125 30.625 C-14.14175781 29.8309375 -14.15851562 29.036875 -14.17578125 28.21875 C-14.19335473 26.14507985 -14.10335168 24.07116759 -14 22 C-12 20 -12 20 -9.1796875 19.8046875 C-4.58984375 19.90234375 -4.58984375 19.90234375 0 20 C0 13.4 0 6.8 0 0 Z " fill="#040509" transform="translate(832,764)"/>
<path d="M0 0 C0.33 0 0.66 0 1 0 C0.979375 0.78375 0.95875 1.5675 0.9375 2.375 C0.81315937 4.98114961 0.81315937 4.98114961 2 7 C2.28794018 10.74322232 2.16139576 11.75790636 0 15 C-3.125 15.1875 -3.125 15.1875 -6 15 C-6.144375 14.401875 -6.28875 13.80375 -6.4375 13.1875 C-6.8872439 11.43849596 -7.42892341 9.71322977 -8 8 C-7.34 7.01 -6.68 6.02 -6 5 C-5.31822584 3.67432801 -4.64808564 2.34246312 -4 1 C-2.68 1.33 -1.36 1.66 0 2 C0 1.34 0 0.68 0 0 Z " fill="#434869" transform="translate(241,301)"/>
<path d="M0 0 C1.703125 1.53515625 1.703125 1.53515625 3 3 C2.00419922 3.02126953 2.00419922 3.02126953 0.98828125 3.04296875 C0.10527344 3.09066406 -0.77773438 3.13835938 -1.6875 3.1875 C-2.55761719 3.22230469 -3.42773438 3.25710938 -4.32421875 3.29296875 C-8.12025293 4.29600844 -9.54754645 5.95508849 -12 9 C-12.50722152 11.83732319 -12.72254511 14.09373781 -12.70703125 16.92578125 C-12.72215256 17.67337204 -12.73727386 18.42096283 -12.75285339 19.19120789 C-12.79564081 21.56528087 -12.8045588 23.93808031 -12.8125 26.3125 C-12.83565158 27.92776802 -12.86101831 29.54300591 -12.88867188 31.15820312 C-12.95143457 35.10558086 -12.98383984 39.05216754 -13 43 C-13.33 43 -13.66 43 -14 43 C-14.17360567 37.84066833 -14.30032367 32.6830509 -14.38452148 27.52148438 C-14.41963149 25.76760227 -14.4673337 24.01392372 -14.52807617 22.26074219 C-14.6134269 19.73321305 -14.65277796 17.20839923 -14.68359375 14.6796875 C-14.71972275 13.90132538 -14.75585175 13.12296326 -14.79307556 12.3210144 C-14.79548462 8.94782261 -14.66879835 6.84114163 -12.52688599 4.14727783 C-8.44227343 0.46469434 -5.7018136 -0.98685235 0 0 Z " fill="#21427A" transform="translate(662,523)"/>
<path d="M0 0 C3.16664666 -0.02940458 6.33325747 -0.04693315 9.5 -0.0625 C10.386875 -0.07087891 11.27375 -0.07925781 12.1875 -0.08789062 C17.55823086 -0.10763596 22.68633663 0.21164107 28 1 C24.89772263 4.10227737 21.62722661 3.29412395 17.390625 3.32226562 C16.27171875 3.31904297 15.1528125 3.31582031 14 3.3125 C12.32164062 3.33666992 12.32164062 3.33666992 10.609375 3.36132812 C9.00835937 3.36229492 9.00835937 3.36229492 7.375 3.36328125 C6.39273437 3.36626221 5.41046875 3.36924316 4.3984375 3.37231445 C3.60695313 3.24945068 2.81546875 3.12658691 2 3 C1.34 2.01 0.68 1.02 0 0 Z " fill="#C2AD7F" transform="translate(450,717)"/>
<path d="M0 0 C7.92 0 15.84 0 24 0 C23.34 2.31 22.68 4.62 22 7 C21.67 5.68 21.34 4.36 21 3 C14.4 2.67 7.8 2.34 1 2 C0.67 2.66 0.34 3.32 0 4 C0 2.68 0 1.36 0 0 Z " fill="#BBBCBC" transform="translate(222,835)"/>
<path d="M0 0 C-3.75044485 2.50029657 -5.78042176 2.23646948 -10.25 2.1875 C-11.53390625 2.18105469 -12.8178125 2.17460938 -14.140625 2.16796875 C-17.85276971 2.0064078 -21.33894478 1.59278744 -25 1 C-25 0.67 -25 0.34 -25 0 C-16.78725024 -1.89178514 -8.27139492 -1.27252229 0 0 Z " fill="#131317" transform="translate(656,672)"/>
<path d="M0 0 C1 4 1 4 -1 10 C-6.61 10 -12.22 10 -18 10 C-17.34 8.68 -16.68 7.36 -16 6 C-16 6.66 -16 7.32 -16 8 C-11.38 8 -6.76 8 -2 8 C-1.34 5.36 -0.68 2.72 0 0 Z " fill="#656A71" transform="translate(455,420)"/>
<path d="M0 0 C8.25 0 16.5 0 25 0 C25 0.33 25 0.66 25 1 C24.31373535 1.05534912 23.6274707 1.11069824 22.92041016 1.16772461 C19.82157565 1.42005303 16.72330016 1.67869649 13.625 1.9375 C12.00464844 2.06801758 12.00464844 2.06801758 10.3515625 2.20117188 C9.3203125 2.28818359 8.2890625 2.37519531 7.2265625 2.46484375 C6.27346191 2.543396 5.32036133 2.62194824 4.33837891 2.70288086 C1.98168205 2.87128174 1.98168205 2.87128174 0 4 C0 2.68 0 1.36 0 0 Z " fill="#8D4757" transform="translate(192,297)"/>
<path d="M0 0 C1.13115234 0.01450195 1.13115234 0.01450195 2.28515625 0.02929688 C3.45111328 0.06700195 3.45111328 0.06700195 4.640625 0.10546875 C5.43339844 0.11900391 6.22617187 0.13253906 7.04296875 0.14648438 C8.99248064 0.18171652 10.94164126 0.23552054 12.890625 0.29296875 C13.220625 1.28296875 13.550625 2.27296875 13.890625 3.29296875 C6.630625 3.29296875 -0.629375 3.29296875 -8.109375 3.29296875 C-3.609375 -0.08203125 -3.609375 -0.08203125 0 0 Z " fill="#28282A" transform="translate(571.109375,718.70703125)"/>
<path d="M0 0 C7.59 0 15.18 0 23 0 C23 0.33 23 0.66 23 1 C21.02 1.33 19.04 1.66 17 2 C17 2.33 17 2.66 17 3 C14.54159395 3.02691685 12.08348118 3.04679802 9.625 3.0625 C8.92632812 3.07087891 8.22765625 3.07925781 7.5078125 3.08789062 C2.2265625 3.11328125 2.2265625 3.11328125 0 2 C0 1.34 0 0.68 0 0 Z " fill="#222124" transform="translate(441,667)"/>
<path d="M0 0 C4.62 0 9.24 0 14 0 C13.67 0.99 13.34 1.98 13 3 C5.74 3 -1.52 3 -9 3 C-9 2.67 -9 2.34 -9 2 C-4.545 1.505 -4.545 1.505 0 1 C0 0.67 0 0.34 0 0 Z " fill="#BEA87C" transform="translate(458,669)"/>
<path d="M0 0 C2.875 1.4375 2.875 1.4375 5 4 C5.41409388 7.04542461 5.29354833 9.94709737 5 13 C4.67 13 4.34 13 4 13 C3.86722656 12.36191406 3.73445313 11.72382812 3.59765625 11.06640625 C3.33275391 9.82697266 3.33275391 9.82697266 3.0625 8.5625 C2.88847656 7.73878906 2.71445312 6.91507813 2.53515625 6.06640625 C2.19247006 4.02338796 2.19247006 4.02338796 1 3 C-3.23314767 2.76038787 -6.36736489 2.67511353 -10 5 C-7.70174657 -0.08898973 -5.55530554 -0.5446378 0 0 Z " fill="#BDB9B2" transform="translate(352,549)"/>
<path d="M0 0 C5.94 0 11.88 0 18 0 C17.01 1.485 17.01 1.485 16 3 C13.3203125 3.3984375 13.3203125 3.3984375 10.125 3.375 C9.07570313 3.38273438 8.02640625 3.39046875 6.9453125 3.3984375 C4 3 4 3 0 0 Z " fill="#252427" transform="translate(581,668)"/>
<path d="M0 0 C0.33 0.66 0.66 1.32 1 2 C0.34 3.32 -0.32 4.64 -1 6 C2.63 6 6.26 6 10 6 C10 6.66 10 7.32 10 8 C5.71 8 1.42 8 -3 8 C-1.125 1.125 -1.125 1.125 0 0 Z " fill="#BEB9B3" transform="translate(486,520)"/>
<path d="M0 0 C0.99 0 1.98 0 3 0 C3 4.95 3 9.9 3 15 C2.67 14.34 2.34 13.68 2 13 C1.34 13 0.68 13 0 13 C0 8.71 0 4.42 0 0 Z " fill="#ADAEAE" transform="translate(648,824)"/>
<path d="M0 0 C2.27734375 -0.36328125 2.27734375 -0.36328125 4.9375 -0.3125 C5.81277344 -0.30863281 6.68804687 -0.30476562 7.58984375 -0.30078125 C10 0 10 0 13 2 C9.71480525 3.09506492 7.26336585 3.09960608 3.8125 3.0625 C2.18248047 3.04896484 2.18248047 3.04896484 0.51953125 3.03515625 C-0.31191406 3.02355469 -1.14335937 3.01195312 -2 3 C-1.34 2.01 -0.68 1.02 0 0 Z " fill="#C0AB7D" transform="translate(409,671)"/>
<path d="M0 0 C2.27057377 -0.05398987 4.54151288 -0.09278742 6.8125 -0.125 C8.07707031 -0.14820313 9.34164062 -0.17140625 10.64453125 -0.1953125 C14 0 14 0 17 2 C15.10590022 2.22354607 13.2095652 2.42819951 11.3125 2.625 C9.72888672 2.79902344 9.72888672 2.79902344 8.11328125 2.9765625 C4.86283654 3.0010326 2.89769204 2.40852563 0 1 C0 0.67 0 0.34 0 0 Z " fill="#644F6A" transform="translate(217,297)"/>
<path d="M0 0 C-0.61875 0.433125 -1.2375 0.86625 -1.875 1.3125 C-4.2197245 2.99740483 -4.2197245 2.99740483 -6 6 C-7.32 5.67 -8.64 5.34 -10 5 C-10 3.68 -10 2.36 -10 1 C-6.61981469 -0.04005702 -3.5219721 -0.08004482 0 0 Z " fill="#4C4765" transform="translate(240,298)"/>
<path d="M0 0 C9.17286652 -0.63019694 9.17286652 -0.63019694 12.625 2 C13.07875 2.66 13.5325 3.32 14 4 C13.67 4.99 13.34 5.98 13 7 C12.54625 6.525625 12.0925 6.05125 11.625 5.5625 C10.06741796 3.90972192 10.06741796 3.90972192 8 3 C8 2.34 8 1.68 8 1 C3.545 1.495 3.545 1.495 -1 2 C-0.67 1.34 -0.34 0.68 0 0 Z " fill="#1B3E79" transform="translate(596,523)"/>
<path d="M0 0 C3.3 0 6.6 0 10 0 C10 0.99 10 1.98 10 3 C6.37 3 2.74 3 -1 3 C-0.67 2.01 -0.34 1.02 0 0 Z " fill="#232428" transform="translate(192,850)"/>
<path d="M0 0 C3.63 0 7.26 0 11 0 C11.33 0.99 11.66 1.98 12 3 C10.56344146 3.08131463 9.1255517 3.13933559 7.6875 3.1875 C6.48673828 3.23970703 6.48673828 3.23970703 5.26171875 3.29296875 C3 3 3 3 0 0 Z " fill="#BBA77C" transform="translate(404,715)"/>
<path d="M0 0 C3.96 0 7.92 0 12 0 C11.01 0.33 10.02 0.66 9 1 C9 1.66 9 2.32 9 3 C6.36 3 3.72 3 1 3 C0.67 2.01 0.34 1.02 0 0 Z " fill="#BEAA7F" transform="translate(376,713)"/>
<path d="M0 0 C0.78375 0.185625 1.5675 0.37125 2.375 0.5625 C4.97089775 1.25962266 4.97089775 1.25962266 7 0 C5.125 4.75 5.125 4.75 4 7 C3.34 7 2.68 7 2 7 C1.34 4.69 0.68 2.38 0 0 Z " fill="#0C0D0F" transform="translate(328,792)"/>
<path d="M0 0 C-0.33 0.99 -0.66 1.98 -1 3 C-4.96 2.67 -8.92 2.34 -13 2 C-13 1.67 -13 1.34 -13 1 C-8.59085217 -0.10228696 -4.51617599 -0.07654536 0 0 Z " fill="#262524" transform="translate(699,677)"/>
<path d="M0 0 C0.33 0.66 0.66 1.32 1 2 C-2.63 2.66 -6.26 3.32 -10 4 C-6.73666345 -0.3511154 -5.13046358 -1.88116998 0 0 Z " fill="#24252A" transform="translate(193,776)"/>
<path d="M0 0 C3.96 0.33 7.92 0.66 12 1 C12 1.33 12 1.66 12 2 C5.565 2.495 5.565 2.495 -1 3 C-0.67 2.01 -0.34 1.02 0 0 Z " fill="#242425" transform="translate(676,712)"/>
<path d="M0 0 C0.1953125 6.0546875 0.1953125 6.0546875 0 8 C-0.66 8.66 -1.32 9.32 -2 10 C-3 9 -3 9 -3.09765625 7.15234375 C-3.06510417 5.1015625 -3.03255208 3.05078125 -3 1 C-1 0 -1 0 0 0 Z " fill="#A8A9AA" transform="translate(145,801)"/>
<path d="M0 0 C2.97 0 5.94 0 9 0 C9.33 0.99 9.66 1.98 10 3 C6.6875 3.1875 6.6875 3.1875 3 3 C2.01 2.01 1.02 1.02 0 0 Z " fill="#242527" transform="translate(385,670)"/>
<path d="M0 0 C1.258125 -0.04125 2.51625 -0.0825 3.8125 -0.125 C4.52019531 -0.14820313 5.22789062 -0.17140625 5.95703125 -0.1953125 C8 0 8 0 11 2 C6.545 2.495 6.545 2.495 2 3 C1.34 2.01 0.68 1.02 0 0 Z " fill="#C0AC7F" transform="translate(391,714)"/>
<path d="M0 0 C-3.18762365 2.12508244 -5.26512223 2.5020163 -9 3 C-9 2.01 -9 1.02 -9 0 C-5.67465243 -1.10844919 -3.37817425 -0.84454356 0 0 Z " fill="#202023" transform="translate(731,704)"/>
<path d="M0 0 C0.66 0.33 1.32 0.66 2 1 C2 1.99 2 2.98 2 4 C-0.5 6.1875 -0.5 6.1875 -3 8 C-2.45276317 4.62537285 -1.9451 2.91765 0 0 Z " fill="#22447A" transform="translate(593,525)"/>
<path d="M0 0 C0.33 0 0.66 0 1 0 C1 2.64 1 5.28 1 8 C0.01 8 -0.98 8 -2 8 C-2.125 5.125 -2.125 5.125 -2 2 C-1.34 1.34 -0.68 0.68 0 0 Z " fill="#A5A7A8" transform="translate(876,854)"/>
<path d="M0 0 C2.31 0 4.62 0 7 0 C7 0.66 7 1.32 7 2 C7.66 2.33 8.32 2.66 9 3 C5.625 3.1875 5.625 3.1875 2 3 C1.34 2.01 0.68 1.02 0 0 Z " fill="#222327" transform="translate(763,834)"/>
<path d="M0 0 C0 0.66 0 1.32 0 2 C-2.64 2.66 -5.28 3.32 -8 4 C-7.67 3.01 -7.34 2.02 -7 1 C-4.53721199 -0.231394 -2.7204945 -0.07159196 0 0 Z " fill="#C1C2C1" transform="translate(301,785)"/>
</svg>
