<?xml version="1.0" encoding="UTF-8"?>
<svg version="1.1" xmlns="http://www.w3.org/2000/svg" width="40" height="40">
<path d="M0 0 C13.2 0 26.4 0 40 0 C40 13.2 40 26.4 40 40 C26.8 40 13.6 40 0 40 C0 26.8 0 13.6 0 0 Z " fill="#0A1219" transform="translate(0,0)"/>
<path d="M0 0 C13.2 0 26.4 0 40 0 C40 13.2 40 26.4 40 40 C26.8 40 13.6 40 0 40 C0 26.8 0 13.6 0 0 Z M4 7 C3.68865923 9.57097342 3.68865923 9.57097342 3.734375 12.55859375 C3.73179688 13.66654297 3.72921875 14.77449219 3.7265625 15.91601562 C3.73429688 17.07810547 3.74203125 18.24019531 3.75 19.4375 C3.74226562 20.59572266 3.73453125 21.75394531 3.7265625 22.94726562 C3.72914062 24.05650391 3.73171875 25.16574219 3.734375 26.30859375 C3.73663086 27.32751709 3.73888672 28.34644043 3.74121094 29.39624023 C3.81752973 32.23512334 3.81752973 32.23512334 6 35 C8.76078677 35.46720925 8.76078677 35.46720925 11.99609375 35.3984375 C13.79336914 35.40423828 13.79336914 35.40423828 15.62695312 35.41015625 C16.88443359 35.39855469 18.14191406 35.38695313 19.4375 35.375 C20.69111328 35.38660156 21.94472656 35.39820312 23.23632812 35.41015625 C25.03553711 35.40435547 25.03553711 35.40435547 26.87109375 35.3984375 C27.97380615 35.39505371 29.07651855 35.39166992 30.21264648 35.38818359 C32.96851121 35.20129075 32.96851121 35.20129075 34.86035156 33.81494141 C36.43102721 31.31356978 36.37232015 29.50576005 36.36328125 26.5625 C36.36263672 25.50289062 36.36199219 24.44328125 36.36132812 23.3515625 C36.34521484 22.24554687 36.32910156 21.13953125 36.3125 20 C36.31572266 18.89398438 36.31894531 17.78796875 36.32226562 16.6484375 C36.47934025 10.46768223 36.47934025 10.46768223 34 5 C31.12392975 4.54899945 31.12392975 4.54899945 27.75 4.63671875 C26.5021875 4.63736328 25.254375 4.63800781 23.96875 4.63867188 C22.6590625 4.65478516 21.349375 4.67089844 20 4.6875 C18.6903125 4.68427734 17.380625 4.68105469 16.03125 4.67773438 C9.4191094 4.19476843 9.4191094 4.19476843 4 7 Z " fill="#DDDDDE" transform="translate(0,0)"/>
<path d="M0 0 C13.2 0 26.4 0 40 0 C40 13.2 40 26.4 40 40 C26.8 40 13.6 40 0 40 C0 26.8 0 13.6 0 0 Z M2.62109375 4.18017578 C0.79612213 7.35463696 0.4970984 9.14645116 0.50390625 12.78125 C0.50326172 13.87050781 0.50261719 14.95976562 0.50195312 16.08203125 C0.52193359 17.20996094 0.54191406 18.33789062 0.5625 19.5 C0.55541016 20.62792969 0.54832031 21.75585938 0.54101562 22.91796875 C0.55513636 31.19527556 0.55513636 31.19527556 5 38 C9.07808844 38.26614584 13.1598149 38.27125966 17.24584961 38.29516602 C19.29414312 38.31234603 21.34080822 38.35620989 23.38867188 38.40039062 C24.67966797 38.40876953 25.97066406 38.41714844 27.30078125 38.42578125 C28.48841064 38.44036377 29.67604004 38.45494629 30.8996582 38.4699707 C34.60821861 37.90780212 35.72096343 36.90930036 38 34 C40.10756206 29.78487588 39.31804681 24.31882995 39.375 19.6875 C39.41238281 18.54603516 39.44976562 17.40457031 39.48828125 16.22851562 C39.49988281 15.12572266 39.51148438 14.02292969 39.5234375 12.88671875 C39.54325684 11.87826904 39.56307617 10.86981934 39.58349609 9.83081055 C38.76447006 5.85733489 37.21115816 4.41889679 34 2 C30.79671057 1.2380166 30.79671057 1.2380166 27.30859375 1.3359375 C25.39723633 1.32626953 25.39723633 1.32626953 23.44726562 1.31640625 C22.78895752 1.32687988 22.13064941 1.33735352 21.45239258 1.34814453 C19.43836151 1.37498852 17.42987705 1.34834501 15.41601562 1.31640625 C14.14306641 1.32285156 12.87011719 1.32929688 11.55859375 1.3359375 C10.39642334 1.34157715 9.23425293 1.3472168 8.03686523 1.35302734 C4.85551907 1.76241193 4.85551907 1.76241193 2.62109375 4.18017578 Z " fill="#04080E" transform="translate(0,0)"/>
<path d="M0 0 C1.28068359 -0.00386719 2.56136719 -0.00773438 3.88085938 -0.01171875 C4.88064819 -0.00229248 4.88064819 -0.00229248 5.90063477 0.00732422 C7.93118819 0.02335682 9.95974347 0.0074856 11.99023438 -0.01171875 C13.91319336 -0.00591797 13.91319336 -0.00591797 15.875 0 C17.63734985 0.00507568 17.63734985 0.00507568 19.43530273 0.01025391 C22.82402841 0.4389335 24.25211369 0.83183785 26.50390625 3.3984375 C26.95800781 6.03393555 26.95800781 6.03393555 26.89453125 9.16015625 C26.88164063 10.27841797 26.86875 11.39667969 26.85546875 12.54882812 C26.82195313 13.71607422 26.7884375 14.88332031 26.75390625 16.0859375 C26.73585937 17.26478516 26.7178125 18.44363281 26.69921875 19.65820312 C26.65202484 22.57242676 26.58619702 25.48502781 26.50390625 28.3984375 C25.51390625 28.8934375 25.51390625 28.8934375 24.50390625 29.3984375 C24.4788501 28.71217285 24.45379395 28.0259082 24.42797852 27.31884766 C24.31219198 24.22017933 24.1893874 21.12182827 24.06640625 18.0234375 C24.02708984 16.94320313 23.98777344 15.86296875 23.94726562 14.75 C23.90537109 13.71875 23.86347656 12.6875 23.8203125 11.625 C23.76532593 10.19534912 23.76532593 10.19534912 23.70922852 8.73681641 C23.6462716 6.37711401 23.6462716 6.37711401 22.50390625 4.3984375 C18.55298566 4.32434349 14.60233331 4.26986344 10.65087891 4.23364258 C8.64471251 4.21111499 6.63874099 4.1730018 4.6328125 4.13476562 C3.37597656 4.12509766 2.11914062 4.11542969 0.82421875 4.10546875 C-0.33835449 4.0897583 -1.50092773 4.07404785 -2.69873047 4.05786133 C-3.62186035 4.17025146 -4.54499023 4.2826416 -5.49609375 4.3984375 C-7.65359159 7.63468426 -7.77969863 8.74237816 -7.91015625 12.50390625 C-7.94882813 13.48681641 -7.9875 14.46972656 -8.02734375 15.48242188 C-8.05828125 16.50658203 -8.08921875 17.53074219 -8.12109375 18.5859375 C-8.15976563 19.62169922 -8.1984375 20.65746094 -8.23828125 21.72460938 C-8.33257671 24.28237372 -8.41817577 26.84013037 -8.49609375 29.3984375 C-8.82609375 29.3984375 -9.15609375 29.3984375 -9.49609375 29.3984375 C-9.58301449 25.12773192 -9.6364589 20.85725292 -9.68359375 16.5859375 C-9.70873047 15.37099609 -9.73386719 14.15605469 -9.75976562 12.90429688 C-9.76943359 11.74091797 -9.77910156 10.57753906 -9.7890625 9.37890625 C-9.80477295 8.30535889 -9.8204834 7.23181152 -9.83666992 6.12573242 C-9.49609375 3.3984375 -9.49609375 3.3984375 -8.38378906 1.54956055 C-5.57965776 -0.16040829 -3.2650232 0.00941252 0 0 Z " fill="#F7F7F7" transform="translate(11.49609375,1.6015625)"/>
<path d="M0 0 C10.89 0 21.78 0 33 0 C33 0.33 33 0.66 33 1 C31.85785034 1.00616333 31.85785034 1.00616333 30.69262695 1.01245117 C27.23180334 1.0454114 23.77273429 1.11606054 20.3125 1.1875 C18.51522461 1.19620117 18.51522461 1.19620117 16.68164062 1.20507812 C11.82296515 1.32688336 8.07564087 1.44681327 3.71875 3.6875 C0.88449827 9.14987606 1.2157211 14.75123548 1.1875 20.8125 C1.16236328 22.07771484 1.13722656 23.34292969 1.11132812 24.64648438 C1.05249509 27.76463543 1.01618494 30.88138367 1 34 C0.67 34 0.34 34 0 34 C0 22.78 0 11.56 0 0 Z " fill="#02050B" transform="translate(0,0)"/>
<path d="M0 0 C2 0 2 0 3.54296875 1.35546875 C7.94588117 6.26037593 7.94588117 6.26037593 8.1875 9.5625 C6.56949936 12.8836592 4.48290106 15.26244242 2 18 C1.01 17.67 0.02 17.34 -1 17 C0.19899698 13.9168649 1.47700477 10.93720508 3 8 C2.319375 7.236875 1.63875 6.47375 0.9375 5.6875 C0.298125 4.800625 -0.34125 3.91375 -1 3 C-0.67 2.01 -0.34 1.02 0 0 Z " fill="#EAEAEB" transform="translate(11,11)"/>
<path d="M0 0 C0 2.31 0 4.62 0 7 C-0.66 7 -1.32 7 -2 7 C-2.57137695 6.35256836 -3.14275391 5.70513672 -3.73144531 5.03808594 C-6.68734031 2.3824885 -8.36667903 2.46477964 -12.296875 2.390625 C-13.50214844 2.35839844 -14.70742188 2.32617188 -15.94921875 2.29296875 C-17.20347656 2.27878906 -18.45773438 2.26460938 -19.75 2.25 C-21.01972656 2.22035156 -22.28945313 2.19070313 -23.59765625 2.16015625 C-26.73183485 2.08946049 -29.86526956 2.03675988 -33 2 C-33 1.67 -33 1.34 -33 1 C-28.81258759 0.83108389 -24.62505782 0.66526895 -20.4375 0.5 C-19.25607422 0.45230469 -18.07464844 0.40460937 -16.85742188 0.35546875 C-11.23422023 0.13495104 -5.62766082 -0.06611055 0 0 Z " fill="#1F262D" transform="translate(40,0)"/>
<path d="M0 0 C0.52561523 0.81041748 1.05123047 1.62083496 1.59277344 2.45581055 C3.7842241 5.25039576 3.7842241 5.25039576 7.02441406 5.65942383 C8.17651367 5.67513428 9.32861328 5.69084473 10.515625 5.70703125 C11.76601562 5.73603516 13.01640625 5.76503906 14.3046875 5.79492188 C15.60664063 5.80072266 16.90859375 5.80652344 18.25 5.8125 C19.56742188 5.83763672 20.88484375 5.86277344 22.2421875 5.88867188 C25.49509156 5.9476013 28.74664795 5.98384097 32 6 C32 6.33 32 6.66 32 7 C15.665 7.495 15.665 7.495 -1 8 C-1 2 -1 2 0 0 Z " fill="#121A20" transform="translate(1,32)"/>
<path d="M0 0 C3.63 0 7.26 0 11 0 C11 0.99 11 1.98 11 3 C7.37 3 3.74 3 0 3 C0 2.01 0 1.02 0 0 Z " fill="#ECECED" transform="translate(21,26)"/>
<path d="M0 0 C1.32 0.33 2.64 0.66 4 1 C3.67 2.32 3.34 3.64 3 5 C2.01 5 1.02 5 0 5 C0 3.35 0 1.7 0 0 Z " fill="#4EC1C7" transform="translate(29,9)"/>
</svg>
